<svg version="1.0" xmlns="http://www.w3.org/2000/svg" width="1024pt" height="768pt" viewBox="0 0 1024 768"><g transform="translate(0.000000,768.000000) scale(0.100000,-0.100000)" fill="#000" stroke="none"><path d="M0 3840V0h5120 5120v3840 3840H7345c-2226 0-2895-3-2895-12s-3-9-12 0-517 12-2225 12H0V3840zm4295 3760c3-5 1-10-4-10-6 0-11 5-11 10 0 6 2 10 4 10 3 0 8-4 11-10zm246-17c13-16 12-17-3-4-10 7-18 15-18 17 0 8 8 3 21-13zm640 0c13-16 12-17-3-4-10 7-18 15-18 17 0 8 8 3 21-13zm-1076-153c3-5 2-10-4-10-5 0-13 5-16 10-3 6-2 10 4 10 5 0 13-4 16-10zm155-80c8-5 11-10 5-10-5 0-17 5-25 10s-10 10-5 10c6 0 17-5 25-10zm281-47c13-15 12-15-8-4-24 12-29 21-14 21 5 0 15-7 22-17zm235-38c-12-12-20-14-36-5-29 15-25 20 16 20 32 0 34-2 20-15zm1064-5c0-5-2-10-4-10-3 0-8 5-11 10-3 6-1 10 4 10 6 0 11-4 11-10zm-1706-37c9-10 95-32 124-33 12 0 22 4 22 9 0 13 51 0 85-21l30-19-60 6c-33 3-71 8-83 11-14 3-21 1-18-5 3-5 0-12-6-15-7-3-3-3 10 0 12 3 22 1 22-5 0-5 8-9 18-9 9 0 40-5 67-12 84-21 81-20 66-29-11-7-10-11 5-20s7-10-36-4c-30 3-66 10-80 14-20 6-15 8 25 10 31 1 40 4 23 6-16 2-28 9-28 14s-31 9-68 9c-63 0-141 17-185 41-10 5-22 7-26 5-5-3-17 4-27 15-19 21-19 21 13 15 21-5 41-2 60 8 32 18 37 19 47 9zm-229-19c14-6 10-10-15-20-38-17-53-18-45-4 3 6 16 10 28 10 18 0 19 2 7 10-17 11 0 13 25 4zm1182-61c0-17 0-17-27 12l-23 25 25-12c13-7 25-18 25-25zm723 17c0-5-7-7-15-4-8 4-12 10-9 15 6 11 24 2 24-11zm-1925-13c7-6-2-7-25-3-19 3-39 11-44 16-7 7 1 8 24 4 19-4 40-11 45-17zm170-9c7-6 3-9-10-8-11 1-33 2-50 1-22-1-26-4-15-10 8-6 18-7 24-4 5 3 6 1 3-5-10-16-49-2-43 15 3 8 6 21 6 28 0 11 8 11 38 3 20-5 42-14 47-20zm497 19c22-1 34-5 32-12-6-16-134-6-159 12-18 13-14 14 36 8 31-4 72-7 91-8zm1138 3c8-5 11-10 5-10-5 0-17 5-25 10s-10 10-5 10c6 0 17-5 25-10zm285-21c11-17 0-20-21-4-17 13-17 14-2 15 9 0 20-5 23-11zm-630-9c3-5 1-10-4-10-6 0-11 5-11 10 0 6 2 10 4 10 3 0 8-4 11-10zm-735-10c0-5-7-10-16-10-8 0-12 5-9 10 3 6 10 10 16 10 5 0 9-4 9-10zm47 4c-3-3-12-4-19-1-8 3-5 6 6 6 11 1 17-2 13-5zm40-10c-3-3-12-4-19-1-8 3-5 6 6 6 11 1 17-2 13-5zm837-9c-4-8-8-15-10-15s-4 7-4 15 4 15 10 15c5 0 7-7 4-15zm-1366-1c12-4 22-12 22-19s6-16 13-18c6-3-4-4-23-2s-36 5-37 6c-4 3-22 6-38 8-21 1-19 19 3 24 26 7 35 7 60 1zm1147-22c-3-3-11 0-18 7-9 10-8 11 6 5 10-3 15-9 12-12zm270 8c3-5-1-10-9-10s-18 5-21 10c-3 6 1 10 9 10s18-4 21-10zm530-10c3-5 1-10-4-10-6 0-11 5-11 10 0 6 2 10 4 10 3 0 8-4 11-10zm-1829-10c14 0 22-4 19-10-10-17-72-12-72 5 0 10 6 14 14 10 8-3 26-5 39-5zm-296-10c0-13-11-13-30 0-12 8-11 10 8 10 12 0 22-4 22-10zm530 0c0-5 9-10 21-10 11 0 18-4 15-9-4-5-23-5-46 1-22 6-37 14-34 19 7 12 44 11 44-1zm-575-20c23-15 46-20 95-19 51 1 58 3 35 9-29 7-30 8-4 9 15 0 42-6 60-14 32-14 26-15-91-11-191 7-180 5-154 30 20 20 23 20 59-4zm420 0c7-12-12-12-40 0-18 8-17 9 7 9 15 1 30-3 33-9zm256-18c-18-2-37 0-42 5s11 6 34 3c41-4 41-5 8-8zm344-32c25-11-1-11-35 0-20 6-21 8-5 8 11 0 29-3 40-8zm-930-9c36-8 34-9-30-10-49 0-65 2-55 9 18 12 32 12 85 1zm208-8c-29-2-78-2-110 0s-8 3 52 3c61 0 87-1 58-3zm395-3c45 0 72-4 72-11 0-14-135-6-170 10l-25 12 25-6c14-2 58-5 98-5zm109-6c-3-3-12-4-19-1-8 3-5 6 6 6 11 1 17-2 13-5zm-482-34c-39-7-39-7-7-9 17 0 32-5 32-11s10-5 25 2c27 12 41 6 30-12-4-6-14-9-22-6s-11 1-8-4c4-6-53-10-160-10s-164 4-160 10c3 6-1 7-10 4-8-3-27-3-41 0-20 5-23 10-14 20 8 11 8 15-2 19-7 3 75 5 182 5 111-1 178-4 155-8zm765-52c0-4-9-8-20-8s-20 4-20 9c0 6 9 9 20 8s20-5 20-9zm-572-5c-10-2-26-2-35 0-10 3-2 5 17 5s27-2 18-5zm492-3c-36-12-90-12-90 0 0 6 25 10 58 9 43-1 51-3 32-9zm-832-27c-21-2-57-2-80 0-24 2-7 4 37 4s63-2 43-4zm251-2c8-5-31-7-94-5-59 1-110 5-113 8-9 10 192 6 207-3zm474-28c-7-2-19-2-25 0-7 3-2 5 12 5s19-2 13-5zm-688-13c3-6-1-7-9-4-18 7-21 14-7 14 6 0 13-4 16-10zm72-6c-3-3-12-4-19-1-8 3-5 6 6 6 11 1 17-2 13-5zm151-1c-10-2-26-2-35 0-10 3-2 5 17 5s27-2 18-5zm-70-38c-9-10-108-22-113-15-2 4-24 6-47 4-34-2-38-1-18 6 27 9 187 13 178 5zm197-44c-31-13-105-20-105-11 0 10 32 17 85 18 29 1 35-1 20-7zm-140-11c-3-5-16-10-28-9-21 0-21 1-2 9 28 12 37 12 30 0zm-68-7c-9-2-15-9-12-14 4-5-1-9-9-9-9 0-16 7-16 15 0 10 9 15 28 14 17-1 20-3 9-6zm-47-7c0-8-61-12-66-4-3 4 11 8 30 8 20 0 36-2 36-4zm53-33c-7-2-21-2-30 0-10 3-4 5 12 5 17 0 24-2 18-5zm-290-48c-12-9-38-15-58-13-58 4-21 20 60 27 18 1 18 0-2-14zm92 6c-18-7-55-4-55 5 0 2 17 4 38 3 28 0 32-2 17-8zm1803-147c25-17 30-44 8-44-7 0-26-7-42-15-19-9-32-11-38-5s-15 10-20 10c-6 0-4-5 4-10 11-7 7-10-18-10-18 0-44-7-57-16-14-9-34-14-45-11-14 3-26-3-39-20-18-22-24-24-68-17-26 4-53 13-61 20-7 8-22 14-33 14-10 0-19 5-19 10 0 6 6 10 14 10s17 7 20 16c8 20 51 15 50-7-2-20 42-14 71 10 45 37 59 47 51 32-6-9-5-12 5-9 8 3 13 11 12 17-2 6 6 11 17 11 26 0 25-11-2-46l-22-28 34 20c19 10 37 22 38 27 2 4 9 7 16 7s21 9 30 19c10 11 28 22 40 24 11 2 23 5 26 6 3 0 16-6 28-15zm-233-4c3-6-4-10-17-10-18 0-20 2-8 10 19 12 18 12 25 0zm305 0c0-5-4-10-10-10-5 0-10 5-10 10 0 6 5 10 10 10 6 0 10-4 10-10zm70-30c0-5-4-10-10-10-5 0-10 5-10 10 0 6 5 10 10 10 6 0 10-4 10-10zm-540-8c0-10-22-32-32-32-5 0-3 9 4 20 13 20 28 27 28 12zm-14-92c19 0 54-27 54-42 0-13-83-2-94 14-6 8-19 17-30 21-15 6-16 10-6 22 11 14 15 14 36 0 13-8 31-15 40-15zm-90-25c31-66-12-90-49-27-18 31-19 34-2 52 21 24 30 19 51-25zm-69-68c-3-7-19-14-36-15-25-1-29 2-21 16 5 9 11 26 15 36 6 19 6 19 27-1 11-12 18-28 15-36zm-2e2 3c-17-28-27-25-24 9 2 24 5 27 19 20 15-8 16-13 5-29zm4093-46c0-8-4-12-10-9-5 3-10 13-10 21s5 12 10 9c6-3 10-13 10-21zm-4135 6c6-10-15-50-27-50-10 0-11 44-1 53 9 10 21 9 28-3zm4105-20c0-10 6-20 13-23 7-2 8-8 3-13s-11-4-13 4c-3 6-15 12-27 12-19 0-22 4-19 24 4 17 10 22 24 19 10-3 19-13 19-23zm-2255-8c0-11 9-16 31-17 17 0 38-6 46-13 8-6 18-9 21-5 10 9 37-17 37-35 0-14-1-14-12 0-16 20-54 28-51 11 4-17-25-5-67 28-23 19-31 32-26 44 7 20 21 12 21-13zm-1675 8c12-8 11-10-7-10-13 0-23 5-23 10 0 13 11 13 30 0zm876-15c18 6 18 6 1-5-21-14-52-5-41 11 5 8 8 8 14 0 3-7 15-9 26-6zm-56-26c5-19 13-24 38-26 18-1 32 2 32 7 0 4 9 10 20 13 13 3 20 0 20-8 0-7 6-15 13-18 9-3 7-9-5-23-14-14-20-15-30-6-18 18-35 15-41-8-3-11-18-25-33-31-16-5-31-14-34-19s-37-16-75-25c-107-24-110-24-113 8-4 37 22 77 51 77 36 0 49 14 41 43-5 22-3 27 12 28 25 2 26 2 48-7 16-6 18-4 13 9s-1 16 16 13c13-2 24-12 27-27zm160 11c0-5-5-10-11-10-5 0-7 5-4 10 3 6 8 10 11 10 2 0 4-4 4-10zm2890-19c0-15-19-23-38-16-14 5-14 7-2 15 19 12 40 13 40 1zm-2026-56c-3-7 8-15 28-20 18-4 35-8 38-9s21-9 40-18c95-44 131-58 148-58 11 0 25-7 32-15 16-20-5-20-51-1-19 8-47 12-64 10-34-4-140 31-170 56-11 10-31 21-45 25l-25 8 28 9c18 7 27 17 27 31 0 17 2 19 9 8 5-8 7-20 5-26zm-54 15c0-5-4-10-10-10-5 0-10 5-10 10 0 6 5 10 10 10 6 0 10-4 10-10zm2070-22c0-6-11-8-25-6-19 4-25 1-25-13 0-11 5-19 10-19 6 0 10-4 10-9s-9-7-20-4c-40 11-16 73 25 66 14-3 25-10 25-15zm-4250 5c0-17-19-35-29-29-18 12-12 36 9 36 11 0 20-3 20-7zm140-18c0-8-4-15-9-15s-11-9-14-20-12-20-21-20c-13 0-12 5 5 35 22 37 39 45 39 20zm2294-1c9-3 16-10 16-15 0-14-24-11-46 6-16 12-17 14-2 15 9 0 23-3 32-6zm110-36c-3-4 0-8 5-8 6 0 11-4 11-10 0-15-22-12-63 9l-38 19h45c25-1 43-5 40-10zm-302-70c62-22 59-21 52-4-8 22 15 30 35 12 14-13 24-14 45-6 18 6 25 6 21 0s6-10 23-10c36 0 92-19 92-31 0-5 16-9 36-9 31 0 37-4 47-30 6-16 15-30 20-30s15-7 24-15c13-14 10-15-29-9-23 4-51 13-60 21s-23 13-30 11c-13-5 58-58 78-58 13 0 38-27 40-44 0-6 2-17 2-23 3-21 32-15 32 7 0 11 7 20 15 20 11 0 14-7 9-24-3-15 1-29 12-41 11-11 18-34 19-62 0-37-4-48-22-61-21-13-25-13-42 2-18 16-20 16-35-15-19-37-6-55 27-37 35 18 77 21 77 4 0-8-4-18-10-21-5-3-10-14-10-23 0-24-35-52-65-52-13 0-29-8-34-19-8-15-23-19-76-20-66-1-70 1-66 42 3 22-10 22-35-2-30-27-60-35-68-16-3 8-15 15-26 15s-20 6-20 14-8 22-17 32c-10 10-18 22-19 28-2 37-19 83-35 94-11 7-19 20-19 29 0 12 8 9 34-11 19-14 46-30 61-36 24-9 25-8 15 11-6 11-24 22-40 26-16 3-28 8-27 12 1 3-14 22-34 42-20 19-41 49-46 65-6 16-16 28-22 26-7-1-10 2-7 7 4 5 2 12-4 16-5 3-10 13-10 20 0 11 6 12 25 5 37-14 96-56 89-63-3-3-15 3-27 14-11 10-28 19-36 19-10 0-3-11 19-30 19-17 41-28 49-25s11 0 8-10c-4-8-2-17 4-20 5-4 9-3 8 2-6 37 12 43 43 13 24-22 43-26 53-10 3 6 1 10-6 10s-27 11-46 26c-18 14-36 23-41 21-4-2-29 18-57 46-27 27-44 46-37 42s26-10 42-15l30-9-28 35c-15 19-34 34-42 34s-21 9-28 21c-12 18-11 19 6 10 11-6 22-7 26-4 3 3 6 1 6-5 0-7 5-12 10-12 21 0 9 18-20 30-27 11-35 21-31 43 0 4-4 6-11 5-7-2-12 2-13 9 0 6-3 15-7 19-5 4-8 11-8 16 0 4 13-4 30-19 16-14 53-35 82-45zm-2357 52c-3-5-11-10-16-10-6 0-7 5-4 10 3 6 11 10 16 10 6 0 7-4 4-10zm772-62c-3-7-5-2-5 12s2 19 5 13c2-7 2-19 0-25zm1987-14c4-9 4-19 2-22-9-8-66 20-60 29 9 15 52 10 58-7zm-2698-20c-5-14-9-15-19-5-9 9-9 14 3 21 18 11 24 6 16-16zm2229-44c3-5 2-10-4-10-5 0-13 5-16 10-3 6-2 10 4 10 5 0 13-4 16-10zm-38-42c-3-8-6-5-6 6-1 11 2 17 5 13 3-3 4-12 1-19zm-1732-118c3-5 2-10-4-10-5 0-16-3-25-6-11-4-16-1-16 10 0 18 35 22 45 6zm296-72c8-14 6-16-8-11-30 10-42 23-40 43 1 18 2 18 20 2 10-9 23-25 28-34zm-398 15c-2-14 9-28 33-44 32-22 35-27 30-60s-3-37 29-52c19-9 35-23 35-30s14-26 31-43c17-16 35-39 40-51 6-16 17-23 34-23 14 0 25-5 25-11s7-17 15-26c8-8 12-19 9-25-5-7 1-9 15-5 13 3 57-8 109-28 48-19 123-45 167-59l80-25-55 4c-87 7-165 22-191 36-13 7-29 12-36 11-6-1-14 2-18 8-3 5-13 10-22 10-8 0-29 12-46 26-18 16-33 22-35 15-2-6-9-8-15-4-13 7 22-37 37-49 5-3 16-4 24-1s17 2 21-3c18-27 193-82 284-91 62-5 70-4 64 10-9 23 26 31 71 15l37-13-50-6-50-6 60-1c34-1 66 3 71 8 6 6 28 12 50 14 96 11 256 50 350 86 14 5 26 4 34-3 10-9 11-9 6 0s-2 11 10 6c12-4 15-3 10 5-4 7-1 12 10 12 16 0 16-1-1-20-12-13-31-20-57-20-25 0-37-4-33-11 4-6-2-13-14-16s-21-9-21-13 18-2 39 3c22 6 37 15 34 20-3 4 1 7 8 6 8-1 28 4 44 11 36 15 76 19 68 6-3-5 0-7 7-4 24 8 23 28-2 37-23 10-23 10-1 10 12 1 24-3 27-7 11-18 107 3 1e2 22-3 9 5 13 25 14l31 1-18-27c-16-25-16-26 3-18 11 5 28 8 38 8 17-1 21 8 18 38-1 11 1 12 6 3 6-8 21 0 51 28 24 21 47 39 53 39 5 0 21 7 35 16 29 19 42 13 19-9-22-23-19-28 10-15 26 12 34 43 13 51-9 3-7 7 5 12s23 1 32-11c16-21 14-40-3-37-8 2-8-5-3-20 5-12 14-21 20-19 6 1 11-3 11-9s-8-8-19-4c-11 3-22 1-26-5-3-5 1-10 9-10 9 0 16-5 16-10 0-6-8-10-17-8-13 2-17-3-16-19 2-13-2-23-7-23-25 0-6-18 25-24 39-8 43-13 18-31-23-17-10-45 22-45 24 0 35-22 17-34-5-3-8-19-7-35 2-28 0-29-32-25-19 2-33-1-33-7 0-5 5-7 10-4 6 3 10 1 10-4 0-6 11-11 25-11s25-4 25-10c0-5-6-10-14-10-7 0-19-6-26-14-6-8-17-13-23-10-7 2-25-5-41-15l-29-20 38 3c22 2 41 9 43 15 7 21 35 13 29-9-3-10 2-25 10-32 13-10 13-14-3-25-22-16-29-16-46 1-12 11-18 10-41-10-21-18-26-29-21-48 5-21 9-23 29-16 29 11 59-15 34-31-19-12-26-11-34 2-4 6-13-1-21-17-17-32-11-43 11-20 23 23 35 20 35-9 0-18-5-25-20-25-11 0-27-11-36-25-13-19-21-23-45-18-30 6-35-1-20-26 5-8 16-11 25-8 34 13 25-16-18-61-25-26-46-53-46-59 0-7-5-13-11-13s-9-6-6-13c3-8-4-20-15-28s-24-25-29-38c-8-20-12-21-25-10s-17 10-25-4c-6-9-17-17-26-17s-25-7-35-17c-10-9-18-11-18-5s-7 9-15 6c-8-4-15-10-15-15 0-4 7-6 15-3 21 8 19-24-2-50-17-20-17-20 0-7 9 7 17 10 17 7 0-4 7 0 15 8 9 9 15 23 13 33-2 15 3 17 30 15 20-2 32 1 32 8s7 10 15 6c8-3 21 1 29 10 15 15 32 2 21-16-3-5-1-10 4-10 6 0 11-4 11-9 0-10-46-9-56 2-3 3-12 3-20 0-21-8-17-50 8-67 29-21 34-106 8-136-15-17-18-32-13-71 5-45 4-49-16-49-11 0-21-4-21-10 0-5 4-10 9-10 10 0 13-10 25-63 7-28 6-28-23-22-23 5-35 1-51-15-13-13-30-20-41-17-10 3-23-1-30-9-6-8-20-14-30-14-11 0-19-3-19-8 0-4 23-8 50-8 37-1 50 3 50 13 0 8 4 12 9 8 5-3 8-18 6-34-3-23 1-30 18-35 27-7 37 3 46 46 5 26 12 34 34 36 23 3 27 0 27-22 0-14-4-26-10-26-5 0-10-6-10-13 0-19-30-77-39-77-11 0-31-71-31-107 0-19-9-38-25-53-22-21-24-30-20-71 4-34 2-48-8-52-8-3-17-28-21-59-4-29-12-68-19-86-9-25-9-37 1-52 7-11 12-28 12-38 0-34 79-174 108-192 33-21 62-62 62-90 0-11 5-20 12-20 6 0 30-19 52-42 23-24 52-52 66-63s34-37 45-59c11-21 26-40 32-43 7-3 10-9 7-14s-1-9 5-9c5 0 13-21 17-46 3-25 12-48 19-50 6-3 12-10 13-17 2-24 29-87 35-81 3 4 9-6 13-20 3-15 15-31 25-37 11-5 19-16 19-24s12-18 28-21c55-13 86-70 43-81-12-3-21-17-25-37-6-32 0-126 9-157 4-13 0-16-24-13-32 4-41-12-41-77 0-57-74-115-97-76-4 8-26 17-47 20-37 6-42 3-84-41-48-49-49-51-51-81-1-21-95-124-104-114-4 3-13 1-20-6-12-9-18-6-31 13-9 14-13 33-9 42 9 23 64 79 86 87 9 3 22 18 27 32 37 97-24 102-89 7-8-12-18-19-22-17-4 3-9-2-13-10-3-8-13-15-23-15-48 0-111-58-82-76 17-10 9-49-15-72-39-36-114-19-90 20 4 6 1 9-7 6-17-5-25-48-10-48 6 0 11-4 11-10 0-5-8-10-19-10-15 0-18 7-17 38 1 37 1 37-41 38-49 1-73 17-66 44 9 34-22 33-83-4-70-43-127-49-122-15 5 35-26 47-62 25-17-10-38-15-46-12-22 8-1e2-28-116-53-9-15-23-21-50-21-31 0-38-4-38-19 0-23-25-51-47-51-11 0-14 6-10 21 5 19 4 20-18 5-14-9-33-16-43-16-11 0-25-7-32-15-13-16-40-21-40-7 0 13 23 32 38 32 8 0 23 11 34 25 14 18 29 25 53 25 21 0 35 6 39 16 3 9 13 14 21 10 23-8 86 62 79 88-3 15 3 29 23 46 26 23 27 25 8 28-11 2-49-4-83-12s-62-12-62-10c0 12 66 64 81 64 11 0 19 5 19 10 0 6 5 10 10 10 18 0 53 38 45 49-8 14-39-1-75-35-16-14-66-35-130-54-131-37-158-39-110-6 19 13 45 26 58 30 12 4 22 11 22 16s17 14 38 20c20 6 45 17 55 24 16 12 17 17 5 36-10 18-10 24 0 27 6 3 12 13 12 24 0 14 7 19 25 19 14 0 25 5 25 10 0 16-42 11-62-7-11-9-35-17-55-17s-31-2-24-4c15-5 14-22-1-22-7 0-26-7-42-15-16-9-44-14-62-13l-34 2 25 26c31 33 32 45 2 25-25-16-39-11-30 11 3 8 17 14 31 14s34 8 44 17c18 16 19 16 25-5 6-26 16-28 33-7 10 13 7 17-19 28l-31 13 27 26c26 24 83 41 128 39 11-1 33-1 50-1 16 0 32-5 36-12 4-6 18-8 33-4 19 5 26 13 26 31 0 34-8 35-155 10-49-9-99-16-109-16-11 0-27-4-38-10-20-11-26 5-7 17 8 4 7 9-2 15-7 4-19 3-26-2-6-6-22-12-35-14s-57-13-98-24c-89-24-80-23-80-11 0 6 7 10 16 10s27 11 39 24c12 12 39 26 60 30 22 4 48 14 59 22 19 13 19 14 2 14-12 0-16 5-12 15 7 20-18 20-34 0-11-13-14-13-24-1-6 8-20 16-31 19-11 2-1 4 22 4 52 1 73 12 47 26-13 7-19 7-22-1-2-7-12-12-23-12-12 0-16 5-13 14 4 9 26 16 62 19 31 3 86 10 122 17 36 6 74 12 85 14 32 4 48 17 37 28-7 7-21 7-44 0-18-6-73-16-123-22-49-6-104-16-121-22s-40-8-50-4c-18 7-17 9 6 21 14 8 33 14 43 15 9 0 17 4 17 9s19 12 43 16c80 12 97 17 97 27 0 6-13 8-32 4-18-4-53-10-78-14s-52-12-60-17-26-11-40-13c-14-1-29-9-35-15-12-15-95-23-95-10 0 18 25 33 52 33 15 0 28 5 28 10 0 6-2 10-4 10s-13 3-23 6c-15 5-16 4-3-6s12-11-3-6c-10 3-24 6-30 6-7 1 2 7 18 14 36 15 121 28 109 16-5-5-22-10-39-13-29-4-29-4 5-6 27-1 31-4 20-11s-12-10-2-10c8 0 26 10 40 22 15 12 19 18 10 15-10-4-18-2-18 3 0 6 18 10 39 10 22 0 43 5 46 10 3 6-1 10-10 10-12 0-15 5-11 16 3 9 6 20 6 26 0 5 12 8 28 7 32-4 52 6 52 26 0 10-10 12-37 9-29-4-34-3-23 5 13 10 13 11 0 12-8 1-19 1-23 0-5-1-6 3-2 9 3 6 12 7 18 4 7-4 9-4 5 1-4 4-3 14 4 22 6 7 8 16 5 20-4 3-16-5-27-18-13-16-18-18-14-6 8 21-21 24-33 2-7-11-19-12-58-6-28 5-42 9-33 10 9 0 18 5 20 11 3 10 92 23 147 21 29-2 33 1 28 18-4 15 2 20 25 25 17 3 41 6 54 6s24 5 24 10c0 6-21 10-46 10-42 0-45 1-33 17 12 15 12 16-3 10-10-3-20-2-24 4-3 6-16 9-27 8-12 0-40-1-62 0l-40 2 55 21c30 11 67 23 82 25 15 3 33 12 40 21 12 14 10 14-10 3-30-16-44-4-18 14 24 18 14 47-16 45-79-7-54 16 27 25 66 7 74 10 57 27-8 8-15 8-26-1-8-7-36-14-63-16l-48-5 40 20c22 11 53 19 69 20 28 0 29 1 10 15-20 15-54 20-54 7 0-4-18-13-40-18-22-6-37-7-34-3 3 5 13 9 22 10 14 0 13 2-3 9-17 6-15 9 15 14 19 4 49 8 65 11 39 5 64 11 98 24 23 9 26 15 21 36s-3 25 14 25c12 0 24 4 27 10 4 6-7 8-26 6-35-4-53-24-38-42 14-18-25-37-81-41l-45-3 54 21c35 14 49 24 41 29-15 9-41 2-52-14-4-6-11-6-21 2-9 8-24 9-45 2-42-11-41 4 1 20 17 6 40 16 49 21s35 12 58 15c38 6 67 24 39 24-7 0-3 9 9 20 12 12 22 23 22 26 0 9-24-9-37-27-7-9-26-19-42-22-16-4-52-17-79-30-31-15-48-19-45-12 2 7 18 19 34 26 19 7 28 17 25 25-5 14 9 18 45 15 8-1 26 3 40 9 21 9 20 9-11 4-26-4-31-3-20 5 8 6 22 11 31 11 8 0 24 7 35 15 18 13 17 14-14 10-18-2-41-10-50-17-12-10-14-10-8 0 9 15-6 16-21 1-6-6-26-14-44-19-19-5-45-12-59-16-22-7-23-6-10 7 33 33 68 48 130 55l65 8-55 8c-30 4-64 4-75-1-84-35-93-37-75-16 7 8 21 15 32 15s32 9 47 19c29 21 106 32 105 16 0-6-13-13-30-16l-29-7 27-1c15 0 30 4 33 9 3 6 21 10 40 10 18 0 35 6 38 13 3 9 9 9 27-1 18-11 26-11 47 3 13 9 22 19 19 22-10 10 43 33 62 27 13-5 14-4 3 4-18 13-81 8-91-7-7-13-31-18-117-26-55-5-82 10-36 21 74 16 126 38 154 66 16 17 27 33 24 36-3 4-17-8-31-26-23-29-65-47-48-21 3 6-7 4-24-5-27-14-85-31-137-41-11-2-36-6-55-10l-35-6 43 20c23 11 42 27 42 36 0 10 10 15 33 16l32 1-30 8c-20 5-23 8-10 9 11 1 32 8 48 16 15 8 45 16 67 18s43 7 47 12c5 4 2 5-4 1-7-4-13-2-13 3 0 14-36 14-62 0-13-7-24-7-30-1s2 14 24 22c45 17 91 22 83 10-3-6-2-10 3-10 6 0 12 7 16 15 4 11-1 15-19 15-14 0-25 5-25 10 0 6 8 10 18 10s28 9 40 20c28 27 64 40 93 34 13-2 18-2 12 2-9 4-10 11-3 25 9 15 7 19-6 19-10 0-14 5-10 15 3 8-1 21-9 29s-15 20-15 27-3 10-6 6c-3-3 1-26 9-51 18-52 12-60-43-61-22 0-34-4-33-12 2-7-11-20-27-28-17-9-30-13-30-9s-7 0-17-7c-9-8-18-13-20-11-2 1-16-4-32-12-16-9-31-12-35-9-3 4-15-3-26-15-18-19-39-27-62-23-5 0-8-3-8-9 0-14-27-12-36 3-4 6-4 9 1 5 4-4 20 1 36 12 20 15 29 17 32 8 4-10 7-11 18 0 11 10 11 12 0 12s-11 3-2 14c7 8 21 13 32 11s34 5 52 16l32 20-35-7c-19-5-47-8-62-8-15 1-25-2-23-6s-7-12-20-18c-33-15-31-10 6 27 31 31 56 42 44 19-4-7-1-6 7 2 20 23 64 43 96 44 17 1 28 5 25 9-3 5-18 5-34 2-52-12-31 2 46 30 41 15 75 31 75 34 0 10-69 0-76-10-3-5-20-9-37-8-30 1-31 1-7 8 14 4 24 13 22 20-1 7 2 10 8 6 5-3 10-2 10 3s14 15 30 22c17 7 29 15 26 17-2 2-19-3-36-12-23-12-31-13-28-4 2 7 39 25 81 40 107 37 199 83 288 146 42 29 80 53 83 53 4 0 12 5 19 10 51 43 124 90 135 85 7-2 10 0 7 5-3 6-2 10 4 10 5 0 25 14 43 30 18 17 38 30 45 30s13 5 13 10c0 14-24 12-38-2-10-10-15-10-21 1-5 8-11 9-15 3-3-6-1-12 6-14 15-5 1-28-18-28-8 0-25-9-37-21-21-19-177-120-253-163-33-19-64-15-34 4 12 8 10 10-8 10-19 0-21-3-12-19 15-28 15-28-40-56-57-29-67-31-50-10 10 12 10 15-1 15-8 1-2 8 14 16 15 8 27 19 27 25s4 8 8 5c4-2 8 4 8 14 0 16-6 13-37-13-38-34-79-86-45-58 14 12 16 11 13-10-3-15-13-26-28-30-36-10-59-10-59 1 0 5 7 7 15 4 8-4 15-1 15 4 0 24-21 21-52-9-18-17-26-27-18-23 9 4 12 3 7-2-8-8-89-39-128-48-9-3-36-14-59-26-24-12-62-24-84-27-22-2-44-7-49-10s-4 3 2 13c18 32 49 64 61 64 6 0 9 4 6 8-3 5 9 22 26 38s28 23 24 17c-12-21 8-15 27 8 11 13 24 18 37 14 10-3 21-1 25 4 4 7-1 9-12 5-16-5-16-4 1 10 11 9 24 16 29 16 18 0 77 32 72 40-7 11-96-21-102-36-5-14-33-20-33-7 0 4 14 22 32 40l32 33-32-11c-17-6-45-27-61-47-16-21-66-75-111-122-68-70-82-80-76-57 6 26 5 27-14 17-11-6-25-8-30-5-13 8-13-18 0-33 7-8 7-9-1-3-6 5-18 7-25 4-8-3-14-1-14 4 0 17 25 39 67 59 23 10 44 27 47 37 2 9 9 17 15 17 7 0 7-8 1-25-7-19-6-23 5-19 9 4 14 19 13 40-1 30-4 33-25 28-12-4-23-3-23 1 0 13 34 34 56 35 12 0 36 17 55 40 19 22 38 40 42 40 5 0 15 7 23 15 9 8 24 15 35 15 10 0 19 5 19 10 0 6 8 10 19 10 10 0 34 7 52 15 19 8 27 14 19 14-8 1-22-3-30-9-9-6-17-5-23 3-7 9-10 9-14 0-2-7-11-13-19-13s-14-6-14-12c0-9-3-8-10 2-8 12-14 10-38-13-15-15-37-27-48-27-10 0-32-14-48-30s-33-27-38-24-12-3-15-15c-5-21-43-38-61-27-8 5-36-27-33-38 3-12-29-37-38-31-5 3-12 1-16-5-3-5-14-14-25-20-15-8-18-6-15 8 2 9 4 21 4 25 1 5 5 6 10 3s11 1 15 9c3 8 13 15 21 15 9 0 28 14 42 30 13 17 33 30 44 30 10 0 19 4 19 9s16 16 35 25 35 21 35 26c0 12-26 2-80-32-51-33-70-19-26 19 15 13 24 28 21 33-3 6-1 10 4 10 6 0 11 5 11 12 0 6-11 1-25-12-13-12-22-27-19-31 3-5-2-9-11-9-8 0-24-5-34-12-24-15-77 5-65 24 5 7 0 9-14 6-15-4-22-2-22 8 0 7 6 11 14 8s26 2 41 12c24 16 34 19 90 26 11 2 26 11 33 20s32 20 57 24c49 7 61 24 18 24l-28 1 28 15c15 8 27 19 27 25s4 8 9 4c5-3 12-1 16 5 3 5 15 10 26 10 10 0 19 5 19 10 0 6 7 10 16 10 8 0 49 36 91 80 41 44 81 80 89 80 7 0 18 9 25 21 9 19 8 20-10 14-11-3-34-18-50-33-1e2-94-161-147-169-147-5 0-25-9-45-20-31-16-41-18-57-7-29 18-33 15-26-18 4-22 2-30-9-30-8 0-22-9-32-19-18-19-81-44-154-60-31-7-39-6-39 6 0 8-5 11-12 8-7-4-2 3 12 14s30 19 36 17c6-3 17 1 23 7 8 8 11 8 11-1 0-17 26-15 44 3 8 8 23 15 34 15 10 0 25 12 32 28 17 34 50 61 72 62 9 0 29 11 43 26 14 14 30 22 35 19 11-7 20 0 73 67 22 26 34 49 28 52-20 13 2 36 43 47 22 6 59 17 81 24l40 14-37 1c-20 0-39-4-42-9s-18-11-32-14c-25-4-26-3-21 30 5 30 4 33-9 22-9-7-14-23-11-35 3-16 0-21-10-17-11 5-18-8-14-29 3-21-114-58-271-85-15-3-28-13-31-25-3-11-15-22-26-25s-18-9-15-14 16-2 30 7c22 15 24 15 24-2 0-19-37-64-52-64-5 0-16-7-24-15-9-8-13-15-10-15s-4-11-16-25-27-25-35-25c-7 0-48-18-90-40-88-45-90-46-90-25 0 8 6 15 13 15s25 11 40 25 35 25 44 25c23 0 47 47 32 62-8 8-19 8-41-2-16-6-35-9-40-5-14 8-14 35-1 35 6 0 15 11 21 24 7 14 23 26 40 30 16 3 37 15 46 26 10 11 23 20 30 20 6 0 14 9 18 19 7 22 52 36 69 22 18-15 29-1 14 16-14 18 4 33 40 33 20 0 21-3 12-20-7-14-7-20 0-20 5 0 10 4 10 9s16 11 35 13c24 3 35 0 35-9 0-18 29-16 37 3 3 8 17 20 32 26 24 10 24 12 6 16-11 2-23 9-27 15s-16 2-32-11c-22-17-30-18-51-9-30 14-33 37-5 37 11 0 20 4 20 8 0 5 13 22 30 38 16 16 30 38 30 48 0 11 7 28 17 38 9 10 13 21 10 24-9 9-37-15-37-31 0-18-69-94-101-111-39-20-50-18-44 9 5 17-1 26-26 41l-32 19 6-22c3-12-1-28-10-37-14-13-17-13-32 1-10 8-30 15-44 15-24 0-27-4-27-35 0-24-5-35-15-35-8 0-15 4-15 9s-14 15-32 24l-31 15 46 22c26 12 50 26 53 31s16 9 30 9c13 0 24 5 24 10 0 6 6 10 14 10 19 0 65 25 79 43 23 29 158 1e2 214 112 18 3 35 11 38 16 11 16-49 9-90-11-22-11-47-19-56-20-9 0-22-7-29-15s-19-15-26-15c-8 0-14-4-14-10 0-5-5-10-12-10-6 0-19-6-27-13-9-8-32-20-51-27-19-8-49-25-67-38s-51-26-74-29c-41-6-42-5-35 20 8 35-10 44-38 18-12-12-26-18-29-14-4 3-7 1-7-5 0-17 20-25 34-13 10 9 15 8 20-5 9-24-2-34-36-34-25 0-28 2-19 14 10 11 8 16-5 24-16 9-16 12-4 27 8 10 14 27 15 38 0 14 7 23 20 25 11 1 40 11 65 21s63 24 85 31 49 23 60 35c11 13 35 26 53 30 23 5 32 12 32 26 0 17-3 18-22 7-13-7-30-18-38-24-23-18-77-27-85-15-3 6-1 11 4 11 15 0 14 14-4 57-15 35-16 35-30 17-20-27-18-47 6-67 36-32 22-42-124-91-38-12-54-13-70-4l-21 11 21 8c11 4 24 12 28 18 8 14 45 14 45 1 0-5 5-10 11-10s8 8 4 19c-4 13 0 23 12 30 14 8 16 12 5 22-10 11-23 9-67-6-30-10-57-16-59-14s4 15 15 27c17 22 33 29 65 31 7 1 14 10 17 21 3 14 14 20 31 20 14 0 26 5 26 10 0 6 11 15 25 20s25 14 25 20c0 13-27 13-35 0-4-6-10-8-15-5-4 3-10-4-13-14-3-13-17-21-45-26-22-3-51-15-63-26-25-21-28-22-48-10-9 6-11 18-7 38 5 21 1 35-13 52l-19 22-15-22c-15-20-17-21-32-5-9 9-14 24-11 32 11 30-5 64-30 64-13 0-24 3-24 7s23 29 51 55c50 47 51 48 23 48-15 0-46-8-68-19-52-24-86-32-86-20 0 5-7 9-15 9-19 0-19 13 0 50 9 16 26 32 40 36 13 3 29 12 36 20 6 8 22 14 35 14s28 9 34 20c10 19 9 20-17 14-15-4-36-11-45-15-9-5-23-6-31-3s-29-4-47-15c-39-24-77-13-61 17 5 9 12 36 16 60 10 61 45 98 1e2 106 29 5 49 14 55 27 6 10 16 19 23 19 8 0 26 13 42 30 15 16 31 29 34 28 23-5 83 18 1e2 38 13 15 32 24 50 24 32 0 47 15 43 42-2 10 5 18 20 21 39 8 53 2 51-20zm161-66c-7-20-32-22-56-3-21 15-23 47-6 64s72-37 62-61zm1676 66c-1-10-36-53-44-53-12 0-6 20 12 39 18 20 32 26 32 14zm-16e2-125c0-4-5-8-11-8s-17-7-26-15c-12-12-18-13-29-4-17 14-18 31-3 46 12 12 69-4 69-19zm1550-12c0-2-7-7-16-10-8-3-12-2-9 4 6 10 25 14 25 6zm-14e2-57c0-6-9-13-21-16s-18-11-15-19 9-21 12-29c8-19-23-32-39-16-6 6-19 11-29 11-21 0-22 4-8 31 6 10 20 19 31 19s27 7 35 15c18 18 34 20 34 4zm1495 1c3-5 1-10-4-10-6 0-11 5-11 10 0 6 2 10 4 10 3 0 8-4 11-10zm-57-20c-7-10-14-17-17-15-4 4 18 35 25 35 2 0-1-9-8-20zm-349-46c-44-23-95-32-84-15 3 5 19 12 35 16 17 4 30 12 30 19 0 8 11 11 32 8l32-5-45-23zm-919 10c0-2-28-18-62-34-63-31-102-37-128-20-13 8-12 10 3 10s21 11 19 32c-1 3 16 4 37 1s41-1 45 5c5 9 86 15 86 6zm1450-29c0-9-6-12-15-9-8 4-15 10-15 15s7 9 15 9 15-7 15-15zm-490-3c0-4-13-13-30-19-35-13-42 3-7 17 28 11 37 12 37 2zm850-2c0-5 7-10 15-10 18 0 19-9 0-34-7-10-18-15-24-12-6 4-21 2-33-5l-22-12 18 27c22 34 11 49-12 19-13-17-23-21-41-16-20 5-22 4-13-13 15-30 13-82-5-88-21-8-113 4-113 15 0 5 17 9 38 10 20 0 46 4 56 8 18 7 18 8 2 14-12 5-15 13-11 27 8 24-1 26-21 5-11-10-30-14-60-11-24 2-44-1-44-5 0-11-47-11-75 0-16 7-14 9 14 14 29 6 32 10 27 32-6 23-4 24 31 23 43-1 176 12 182 18 9 9 91 3 91-6zm-1794-16c-6-15-4-15 19 0 18 12 30 14 43 7 16-9 15-10-3-17-11-4-27-13-35-20-22-18-120-23-120-6 0 7 74 47 94 50 4 1 5-5 2-14zm644 6c0-5-12-13-27-16-16-4-34-11-41-17-7-5-15-8-17-5-9 8 6 38 16 32 5-3 17 0 26 5 23 13 43 14 43 1zm-490-29c0-20 1-20 46 1 50 21 71 15 48-16-9-14-25-19-51-18-96 3-134 14-94 27 12 3 21 11 21 16s7 9 15 9 15-9 15-19zm215 7c24 11 27 11 22-3-5-10 0-15 13-15 25 0 27-20 3-21-10 0-34-1-54-3-34-3-35-1-31 27 3 19 7 25 13 16 6-10 13-10 34-1zm89-9c-8-14-24-10-24 6 0 9 6 12 15 9 8-4 12-10 9-15zm-154-24c0-9-6-12-15-9-8 4-15 10-15 15s7 9 15 9 15-7 15-15zm1117-7c-3-8-6-5-6 6-1 11 2 17 5 13 3-3 4-12 1-19zm1798 4c-3-3-11 0-18 7-9 10-8 11 6 5 10-3 15-9 12-12zm-2735-2c0-5-7-10-16-10-8 0-12 5-9 10 3 6 10 10 16 10 5 0 9-4 9-10zm1240-6c0-8-5-12-10-9-6 4-8 11-5 16 9 14 15 11 15-7zm-94-31c-10-10-19 5-10 18 6 11 8 11 12 0 2-7 1-15-2-18zm-176-21c0-7-4-10-10-7-5 3-10 16-10 28 0 18 2 19 10 7 5-8 10-21 10-28zm-1017 21c-7-2-21-2-30 0-10 3-4 5 12 5 17 0 24-2 18-5zm859-15c-7-7-12-8-12-2 0 14 12 26 19 19 2-3-1-11-7-17zm491-3c-6-17-25-15-31 3-2 7 5 12 17 12 14 0 19-5 14-15zm1182-26c-10-15-25-10-19 6 4 8 10 12 15 9s7-10 4-15zm-1179-11c4-6 0-16-9-23-10-7-17-17-17-22 0-7-32-10-84-9-70 1-83-1-81-14 1-10 10-14 26-12l24 4-24-21-24-21h31c19 0 31 5 30 12-3 14 48 35 59 24 4-4 2-11-6-15-7-5-11-17-9-27 2-14-3-19-22-20-14-1-27-2-30-4-3-1-20-3-37-5-29-2-33 0-33 21 0 17-9 26-34 35-29 11-33 15-25 31 5 10 18 18 28 18 11 0 21 7 25 15 6 18 47 20 64 3 9-9 16-8 30 5 10 9 29 17 43 17 13 0 31 5 39 10 20 13 27 12 36-2zm-311-7c8-14-10-22-30-15-13 5-14 8-3 15 17 11 26 11 33 0zm-70-20c8-14-10-22-30-15-13 5-14 8-3 15 17 11 26 11 33 0zm9-86c3-8 1-15-4-15-6 0-10 7-10 15s2 15 4 15 6-7 10-15zm1909 8c-7-2-19-2-25 0-7 3-2 5 12 5s19-2 13-5zm-398-13c3-5 1-10-4-10-6 0-11 5-11 10 0 6 2 10 4 10 3 0 8-4 11-10zm-1375-42c-11-4-20-14-20-22s-3-22-7-32c-5-13-3-16 10-11 9 3 17 2 17-3 0-6-10-10-22-10-13 0-36-7-52-15-32-17-50-10-25 8 8 7 18 20 22 30 4 11 16 21 26 24 12 3 17 11 14 19s3 24 13 35c17 19 19 19 31 2 12-15 11-18-7-25zm-260 13c0-6-4-13-10-16-5-3-10 1-10 9 0 9 5 16 10 16 6 0 10-4 10-9zm2345-11c3-5 1-10-4-10-6 0-11 5-11 10 0 6 2 10 4 10 3 0 8-4 11-10zm301-5c-10-8-24-11-30-8-6 4 0 10 14 14 36 10 37 10 16-6zm-2156-4c0-12-20-25-27-18s6 27 18 27c5 0 9-4 9-9zm-82-21c-13-21-30-24-63-11-19 8-19 8 0 19 11 6 32 12 48 12 25 0 26-2 15-20zm1271-6c4 3 8-1 8-8 0-11-4-12-18-3-10 6-15 16-12 21 4 6 8 5 11-2 2-7 7-10 11-8zm111 6c0-5-2-10-4-10-3 0-8 5-11 10-3 6-1 10 4 10 6 0 11-4 11-10zm-1477-25c-6-18 25-45 44-38 9 4 13-6 13-32 0-34-2-36-27-33-20 2-28 9-28 23-1 11-7 33-15 48-12 25-12 30 1 38 19 12 19 11 12-6zm-323 1c0-3-4-8-10-11-5-3-10-1-10 4 0 6 5 11 10 11 6 0 10-2 10-4zm1507-32c-9-9-28 6-21 18 4 6 10 6 17-1 6-6 8-13 4-17zm93-87c0-11-34-17-40-7-4 6-16 13-26 14-20 3-30 36-20 62 4 11 16 5 46-25 22-21 40-41 40-44zm64 74c4-5 3-16 0-25-6-15-8-15-19 1-13 18-11 33 5 33 5 0 11-4 14-9zm-1370-16c-4-8-16-15-27-15-20 0-20 0-1 15 25 19 35 19 28 0zm1439-21c-4-12-8-12-18 3-16 22-8 38 10 23 8-6 11-18 8-26zm-323 6c0-5-4-10-10-10-5 0-10 5-10 10 0 6 5 10 10 10 6 0 10-4 10-10zm405 0c3-6-1-7-9-4-18 7-21 14-7 14 6 0 13-4 16-10zm-1640-10c3-5 0-10-9-10-8 0-21-3-30-6-11-4-16-1-16 10 0 18 45 23 55 6zm1599-11c-3-5-10-7-15-3-5 3-7 10-3 15 3 5 10 7 15 3 5-3 7-10 3-15zm79-12c-3-5-10-4-15 1-6 6-7 16-3 22 6 9 9 9 16-1 4-7 5-17 2-22zm-1595-3c2-11-7-29-18-39-22-20-22-20-36 0-13 17-12 22 8 41 27 26 42 25 46-2zm-126-82c-4-20-17-23-17-4 0 4-4 13-8 19-4 7-2 23 4 35l13 23 6-25c3-14 4-35 2-48zm232 31c9-22-12-43-23-24-10 15-4 41 9 41 4 0 11-8 14-17zm1466-9c0-6-7-15-16-18-22-8-24-8-24 8 0 8-6 16-12 19-7 2 2 4 20 4s32-5 32-13zm-1587-31c23 2 53 8 65 12 21 7 23 5 20-16-2-18-10-25-32-27-16-2-33 1-38 6-15 15-36 3-31-17 5-19-38-48-55-37-13 8-3 88 12 98 6 4 13 1 14-8 3-12 13-15 45-11zm1792-83c3-5 1-10-4-10-6 0-11 5-11 10 0 6 2 10 4 10 3 0 8-4 11-10zm-151-19c-2-2 8-12 23-22l27-18-24 3c-37 5-57 15-57 29 0 7 8 13 18 13s16-2 13-5zm-164-73c0-9 8-21 17-27 10-5 15-13 11-17-10-10-38 15-49 43-5 13-16 23-24 23-9 0-14 4-11 9 9 14 56-12 56-31zm116 16c28-13 32-19 23-30-10-12-14-11-26 6-8 11-21 20-29 20s-14 5-14 10c0 14 6 13 46-6zm-66-20c0-2-9 0-20 6s-20 13-20 16c0 2 9 0 20-6s20-13 20-16zm-1430-79c0-14-4-25-10-25-11 0-14 33-3 43 11 11 13 8 13-18zm-2326-21c22-8 20-27-4-49-15-13-20-14-20-5 0 11-3 11-12 2-15-15-38-16-38-2 0 6 7 10 16 10s12 5 8 12c-4 6 1 17 11 25 22 15 19 15 39 7zm236-18c0-23-18-29-35-12-11 11-12 16-2 19 23 10 37 7 37-7zm3665-6c3-5-3-10-14-10-12 0-21 5-21 10 0 6 6 10 14 10s18-4 21-10zm-3732-29c17-6 17-8-3-26-25-23-56-26-72-8-6 7-9 14-7 16 2 1 13 7 24 14 23 14 33 14 58 4zm2027-21c0-5-4-10-10-10-5 0-10 5-10 10 0 6 5 10 10 10 6 0 10-4 10-10zm-2210-30c0-13-7-20-20-20-19 0-27 20-13 33 13 14 33 6 33-13zm590 14c0-14-43-64-54-64-8 0-19-7-26-15-9-11-16-12-25-5-9 8-14 8-17 0-4-12-78-24-78-13 0 12 63 63 79 63 9 0 34 9 56 19 41 20 65 25 65 15zm-640-40c0-16-26-19-35-4-3 6-4 14 0 20 8 13 35 1 35-16zm115 6c4-6-7-10-24-10s-31 5-31 10c0 6 11 10 24 10 14 0 28-4 31-10zm-55-46c0-9 8-23 18-30 15-12 14-14-13-12-16 1-43-5-60-14-25-13-36-13-65-3l-35 13 25 12c14 6 41 20 60 31 43 23 70 24 70 3zm345 6c-3-5-11-10-16-10-6 0-7 5-4 10 3 6 11 10 16 10 6 0 7-4 4-10zm-355-70c0-14-42-50-51-44-12 7 20 54 37 54 8 0 14-4 14-10zm330-70c0-5-9-10-20-10s-20 5-20 10c0 6 9 10 20 10s20-4 20-10zm-194-125c-3-9-10-13-16-10-5 3-10 2-10-4 0-5-7-17-16-26-22-22-35-2-20 30 20 43 79 52 62 10zm64-39c0-16-21-36-37-36-7 0-10 7-8 15 3 8 7 22 10 30 5 17 35 9 35-9zm1551-18c13-23-4-48-32-48-21 0-22 3-13 48 7 34 27 34 45 0zm-1505-21c2-7 6-23 10-36 5-18 4-22-7-19-8 3-21 1-31-3-18-10-33 14-21 34 26 42 44 51 49 24zm2051-36c7-10 8-22 2-33-8-15-5-18 16-18 29 0 43-23 26-44-6-7-8-16-4-19 3-4 1-7-5-7-19 0-14-24 8-37 10-7 26-10 34-7 23 9 58-36 51-66-4-14-11-26-16-28-23-9-5-32 31-43 22-7 45-18 51-25 13-15 3-55-13-51-19 4-28-62-11-76 8-7 22-20 31-29 12-13 19-14 29-6s18 5 33-12c15-18 18-31 13-67-7-51 13-123 34-123 8 0 13-7 11-16-2-8-6-15-10-15-5 1-17-8-28-19s-31-21-45-21c-14-1-31-2-37-3-7-1-16-9-20-18-5-13-19-18-48-18-25 0-40-5-40-12 0-9-3-9-8-2-15 22-40 23-47 1-6-19-8-20-12-4-2 9-9 17-14 17-6 0-9-8-7-17 2-14-4-18-33-18-26-1-35 3-32 12 7 17-37 33-58 22-9-4-20-5-24-1s-6 0-4-8c4-23-20-72-31-65-6 3-14-5-20-19-5-14-14-26-20-26-5 0-13-18-16-40-4-24-12-40-20-40s-15-8-15-17c-1-10-3-29-5-43s-5-42-6-62c-2-21-8-38-14-38s-14-9-17-21-10-18-15-15c-6 3-8 14-6 24 3 11-5 23-26 34-25 14-29 22-24 42 4 18 1 26-13 30-18 6-73 103-73 129 0 7-9 18-20 25s-20 16-20 22c0 13-45 60-59 60-6 0-11 9-11 19s-7 21-15 24c-8 4-23 24-33 45-17 36-18 52-10 137 3 28 22 45 52 45 27 0 59 39 34 41-7 0-3 5 10 11 12 6 22 15 22 20s-4 6-10 3c-18-11-11 44 8 62 23 22 52 85 52 111 0 20 25 53 94 124l38 40-27 28c-18 19-23 30-15 35 6 4 9 13 6 21-8 21 68 19 85-2 10-12 23-14 56-9 28 4 43 2 43-4s7-11 15-11 15 7 15 15c0 16 53 74 85 91 24 14 55 7 72-15zm-2112-71c3-6-1-13-10-16-19-8-30 0-20 15 8 14 22 14 30 1zm165-30c0-5-9-10-20-10s-20 5-20 10c0 6 9 10 20 10s20-4 20-10zm-130-40c0-5-6-10-14-10s-23-3-33-7c-16-6-16-5-4 10 15 18 51 23 51 7zm446-19c-9-14-66-32-66-20 0 10 35 27 58 28 7 1 11-3 8-8zm-176-51c-8-5-22-9-30-9-10 0-8 3 5 9 27 12 43 12 25 0zm148-14c-19-18-78-31-78-17 0 6 13 11 29 11 17 0 33 5 36 10 3 6 11 10 16 10 6 0 4-6-3-14zm-171-46c-27-21-42-26-32-10 4 6-1 7-12 3-12-4-15-3-8 5 9 9 26 14 69 21 5 0-3-8-17-19zm102 7c-2-1-13-9-24-17-19-14-19-14-6 3 7 9 18 17 24 17s8-1 6-3zm-144-137c-3-5-12-10-18-10-7 0-6 4 3 10 19 12 23 12 15 0zm-85-39c0-12-20-25-27-18s6 27 18 27c5 0 9-4 9-9zm204-46c-4-8-8-15-10-15s-4 7-4 15 4 15 10 15c5 0 7-7 4-15zm26-87c0-4-9-8-21-8-11 0-18 4-15 8 3 5 12 9 21 9 8 0 15-4 15-9zm108-15c-10-2-26-2-35 0-10 3-2 5 17 5s27-2 18-5zm-183-153c-3-5-12-10-18-10-7 0-6 4 3 10 19 12 23 12 15 0zm-5-105c-14-8-34-14-45-14-15 1-13 4 10 14 40 19 67 18 35 0zm-30-125c0-5-5-10-11-10-5 0-7 5-4 10 3 6 8 10 11 10 2 0 4-4 4-10zm42-48c-16-12-34-17-55-14l-32 5 40 12c59 19 74 18 47-3zm-2-33c0-4-22-7-50-6-27 1-50 5-50 10 0 4 23 7 50 6 28-1 50-6 50-10zm-77-76c-7-2-21-2-30 0-10 3-4 5 12 5 17 0 24-2 18-5zm72-9c13-5 14-8 3-15-19-13-30-11-22 4 6 10 4 10-7 0-15-15-69-17-69-4 0 6 15 12 33 14 17 2 35 5 39 5 3 1 14-1 23-4zm-20-54c-11-5-40-8-65-8-37 0-41 1-20 8 36 11 112 11 85 0zm-90-1e2c-3-5-20-10-36-10-18 0-28 4-24 10 3 6 20 10 36 10 18 0 28-4 24-10zm45 0c-19-13-30-13-30 0 0 6 10 10 23 10 18 0 19-2 7-10zm17-37c5-13-69-25-101-17-16 4-25 1-29-10-4-9-14-16-24-15-16 0-16 1 2 9l20 9-20 1c-18 1-17 3 5 12 24 11 116 27 134 23 6-1 11-6 13-12zm-47-48c-7-8-24-15-39-15-14 0-44-3-66-6-28-4-37-3-30 4 8 9 58 20 139 31 5 0 3-6-4-14zm-121-164c11-7 6-12-20-19-40-11-55-6-38 14 13 16 37 18 58 5zm-3-46c-11-8-29-15-40-15-36 0 7 25 49 29 6 0 1-6-9-14zm72-7c-2-7 4-13 12-14 8 0 23-2 33-2 10-1 16-6 12-12-3-5-12-7-20-3-9 3-22 0-30-7s-15-10-15-6c0 17-3 22-16 29-8 5-12 12-9 18 9 13 35 11 33-3zm-65-35c-7-2-21-2-30 0-10 3-4 5 12 5 17 0 24-2 18-5zm-20-23c17-1-18-20-54-30-17-5-29-5-29 1 0 5 7 9 16 9 8 0 13 4 10 9-7 11 14 21 32 15 8-2 19-4 25-4zm-29-69c3-5-1-15-10-22-19-15-78-23-69-9 3 6 13 10 21 10s13 3 13 8c-3 17 2 22 20 22 11 0 22-4 25-9zm271-5c-30-13-98-30-165-40-19-3 1 7 45 23s96 30 115 30l35 1-30-14zm-90-46c-4-7 11-8 43-4 29 3 52 2 56-4s-2-8-14-5-22-1-26-11c-7-17-44-23-44-6 0 5-20 8-45 7-33-1-47-7-51-20s-9-15-18-8c-10 8-19 5-36-9-13-11-26-20-29-21-80-10-89-9-87 7 3 21 23 32 73 37 22 3 50 10 62 17 12 6 34 9 49 5 17-3 35 0 47 9 24 18 28 19 20 6zm-120-10c-3-5-16-10-28-10-18 0-19 2-7 10 20 13 43 13 35 0zm139-55c3-8 12-15 21-15 8 0 15-4 15-10 0-5-9-10-19-10-20 0-54-37-46-50 3-4-27-8-65-7-39 0-70 4-70 8 0 16 21 20 57 10 41-12 63-1 63 30 0 10 8 23 18 28 14 9 11 10-18 11-26 0-31 3-20 10 23 15 57 12 64-5zm1706-40c0-39-14-47-23-14-5 17 8 47 21 49 1 0 2-16 2-35zm-1825 6c-6-5-21-11-35-13-15-2-24-9-22-17 2-10-5-12-25-7-21 5-24 4-13-4 8-5 11-10 5-11-5 0-1-4 10-8 15-6 6-9-32-12-42-3-53-1-56 13-4 14-1 15 19 8 14-6 26-6 29 0 4 6 1 10-6 10-22 0 3 18 46 34 46 17 94 21 80 7zm325-40c-8-6-18-7-23-4s-19-5-33-18c-13-12-24-19-24-15 0 3-13 0-30-9-16-9-30-12-30-7 0 13 102 61 130 61 19 1 22-2 10-8zm-346-37c13-5 13-10 4-27-6-12-12-24-12-27-1-3-5-3-11-1-5 2-27 6-48 8-42 6-32 22 13 23 14 0 32 5 40 11 13 9 12 10-2 5-10-3-18-1-18 4 0 11 11 13 34 4zm53-2c9-6 8-11-5-19-15-9-18-7-19 8-2 20 5 23 24 11zm81-34c-5-15-58-24-58-9 0 9 20 17 48 20 8 0 12-5 10-11zm-245-25c-7-2-19-2-25 0-7 3-2 5 12 5s19-2 13-5zm86-9c2-2-5-4-17-4s-22-5-22-12c0-6-3-8-6-5-4 3-15 2-26-4-19-10-65-2-53 9 4 4 21 7 38 7 21 0 31 5 29 13-1 9 6 11 25 6 16-4 30-8 32-10zm38-40c13-13 14-17 3-24-7-4-19-6-26-3-7 2-22-5-33-16-29-29-50-26-22 3l22 23-26-5c-15-2-22-7-17-11 14-9-19-47-49-56-23-7-24-7-4 9 19 16 19 16-10 10l-30-6 29 26c16 14 33 26 39 26 5 0 23 6 40 14 28 12 54 22 65 25 2 1 11-6 19-15zm3-59c-7-8-20-15-30-15-9 0-25-10-36-22l-19-21 30 18 30 19-25-27c-13-15-29-26-36-23s-26-6-44-19-39-21-47-18c-12 5-6 11 21 25 36 18 51 36 20 24-9-3-12-2-9 5 4 5 12 8 18 6 7-3 21 4 32 14 12 10 39 25 60 33 51 19 50 19 35 1zm305 5c-3-5-11-10-16-10-6 0-7 5-4 10 3 6 11 10 16 10 6 0 7-4 4-10zm-252-7c-7-2-19-2-25 0-7 3-2 5 12 5s19-2 13-5zm-48-33c-3-5-12-10-18-10-7 0-6 4 3 10 19 12 23 12 15 0zm-2e2-10c-3-5-14-10-23-10-15 0-15 2-2 10 20 13 33 13 25 0zm422 4c-3-3-12-4-19-1-8 3-5 6 6 6 11 1 17-2 13-5zm-227-29c-7-8-21-15-32-15-10 0-17-4-14-8 2-4-4-9-15-9-10-1-19 1-19 5 0 11 40 33 50 27 5-3 11-1 15 5 3 5 11 10 17 10 7 0 6-6-2-15zm190-3c0-12-82-57-98-54-7 2-19-4-28-12-26-26-136-87-151-84-8 2 3 12 24 23 72 37 96 57 81 67-10 7-8 8 5 4 19-6 24-4 102 37 54 28 65 32 65 19zm-132-26c-13-12-28-21-34-19-7 2-15 0-19-6-3-6-13-11-22-11-26 0 4 28 38 35 16 4 29 11 29 16s7 9 15 9c12 0 10-6-7-24zm830 7c-10-2-18-11-18-19s-5-14-12-14c-6 0-19-7-29-16s-23-13-28-9c-17 10 6 45 29 45 10 0 22 5 25 10 3 6 16 9 28 9 17-1 18-2 5-6zm-639-20c-6-7-15-10-20-7-13 8-3 21 15 21 12 0 13-4 5-14zm-368-13c-22-19-41-26-41-15 0 5 51 34 60 34 3 0-6-9-19-19zm671 9c20-11 20-11-3-35-12-13-34-24-48-24-19 0-22 3-13 12 7 7 12 20 12 29 0 14 9 23 28 28 2 1 12-4 24-10zm-742-3c0-2-7-7-16-10-8-3-12-2-9 4 6 10 25 14 25 6zm144-48c-10-10-39-29-65-42-37-18-46-19-41-7 9 23 44 50 65 51 10 0 16 3 14 8-3 4 6 8 20 8 23 2 24 1 7-18zm803-13c-33-29-56-34-36-7 19 24 31 32 49 32 10-1 5-9-13-25zm-327-20c-7-8-20-15-29-14-10 0-12 2-3 6 6 2 10 9 6 14-3 5 5 9 17 9 18 0 19-2 9-15zm-378-10c-2-5-8-9-13-7-6 1-20-9-33-23s-28-25-34-25-13-8-17-19c-4-13-12-17-30-13-30 5-33 22-5 29 11 3 20 9 20 13 0 5 16 14 35 20s35 18 35 26c0 10 8 14 23 12 12-2 20-7 19-13zm288 11c0-2-9-6-20-9s-18-1-14 4c5 9 34 13 34 5zm530-11c0-8-9-15-20-15-20 0-26 11-13 23 12 13 33 7 33-8zm-2e2-40c-7-9-15-13-18-10-3 2 1 11 8 20s15 13 18 10c3-2-1-11-8-20zm-796 0c-25-19-40-19-24 0 7 8 20 15 28 15 13 0 12-3-4-15zm231-1c-9-9-14-23-11-30 3-8 0-11-9-8-15 6-87-61-77-71 3-3 0-5-7-5s-27-10-44-22c-18-12-29-18-25-13 4 4 3 14-2 20-7 8-3 18 12 31 19 17 21 17 15 1s-5-16 18-1c14 9 22 20 19 26-6 10 33 48 50 48 6 0 22 9 36 20 30 24 48 26 25 4zm385-23c0-12-71-71-85-71-5 1 0 9 13 19 12 11 22 22 22 26 0 3 6 12 13 20 14 16 37 20 37 6zm-611-47c-10-12-10-17-1-23 7-4-3-7-23-7-37 1-47 13-17 22 9 3 24 9 32 14 22 13 24 12 9-6zm295-11c-10-7-27-13-38-13-20 1-20 1-3 15 11 7 28 13 39 12 18-1 18-2 2-14zm105 14c-2-1-13-9-24-17-19-14-19-14-6 3 7 9 18 17 24 17s8-1 6-3zm-169-46c0-5-7-11-14-14-10-4-13-1-9 9 6 15 23 19 23 5zm-61-28c-30-38-60-52-61-28-1 10 49 43 66 44 5 1 2-7-5-16zm225-248c-4-8-11-15-16-15-6 0-5 6 2 15 7 8 14 15 16 15s1-7-2-15zm62-141c-4-9-9-15-11-12-3 3-3 13 1 22s9 15 11 12c3-3 3-13-1-22zm150-41c-10-10-19 5-10 18 6 11 8 11 12 0 2-7 1-15-2-18zm-63-27c-6-31-26-39-50-21-17 13-16 14 10 15 17 0 27 5 27 15 0 8 4 15 9 15 4 0 6-11 4-24zm-106-8c-3-8-6-5-6 6-1 11 2 17 5 13 3-3 4-12 1-19zm203-8c0-5-3-10-7-11-5 0-18-2-30-3-14-2-23 3-23 11s12 13 30 13c17 0 30-4 30-10zm377-54c-5-15-29-18-47-6-12 8-13 11-1 19 17 11 53 2 48-13zm-342-7c9-14 7-16-42-24-52-8-59 10-10 24 43 13 45 13 52 0zm210 1c-3-5-15-10-26-10-10 0-19 5-19 10 0 6 12 10 26 10s23-4 19-10zm-388-26c-3-3-12-4-19-1-8 3-5 6 6 6 11 1 17-2 13-5zm116-43c-2-6 4-11 12-11s15 7 15 15 8 15 18 14c10 0 12-3 5-6-7-2-13-11-13-18 0-17-23-25-76-25-37 0-44 3-44 20 0 24 9 26 25 3 11-15 13-15 24 6 12 22 38 24 34 2zm155 9c23 0 3-17-30-25-30-8-32-6-22 20 4 9 13 14 21 11s22-6 31-6zm57-70c-3-5-26-10-51-10-28 0-43 4-39 10 3 6 26 10 51 10 28 0 43-4 39-10zm-291-15c3-9 0-15-9-15-8 0-15 7-15 15s4 15 9 15 11-7 15-15zm96 5c11-7 5-10-23-10-23 0-36 4-32 10 8 13 35 13 55 0zm90-26c0-2-9-4-20-4s-20 4-20 9 9 7 20 4 20-7 20-9zm365 6c-3-5-10-10-16-10-5 0-9 5-9 10 0 6 7 10 16 10 8 0 12-4 9-10zm-510-10c-11-5-27-9-35-9-9 0-8 4 5 9 11 5 27 9 35 9 9 0 8-4-5-9zm75-4c0-3-4-8-10-11-5-3-10-1-10 4 0 6 5 11 10 11 6 0 10-2 10-4zm-37-13c-7-2-19-2-25 0-7 3-2 5 12 5s19-2 13-5zm407-2c0-5-7-12-16-15-22-9-24-8-24 9 0 8 9 15 20 15s20-4 20-9zm-267-8c-13-2-23-7-23-11s-11-7-25-7-25 6-25 13c0 8 15 12 48 11 26-1 37-4 25-6zm-216-18c0-11-4-12-14-4-7 6-13 13-13 15s6 4 13 4c8 0 14-7 14-15zm417 1c-6-15-96-32-114-21-23 14-7 22 35 17 30-3 45-1 45 7 0 6 9 11 20 11 13 0 17-5 14-14zm-301-13c-7-2-19-2-25 0-7 3-2 5 12 5s19-2 13-5zm172-12c10-17-45-25-61-9-12 12-10 14 20 16 19 1 37-2 41-7zm-195-46c-7-8-17-12-22-9-6 4-5 10 3 15 22 14 33 10 19-6zm46-11c-28-13-51-24-54-24-10 0 30 31 50 39 48 20 51 9 4-15zm-82-3c3-5-1-12-10-15-27-10-35-7-22 9 15 17 25 19 32 6zm-57-7c-3-3-12-4-19-1-8 3-5 6 6 6 11 1 17-2 13-5zm233 2c0-2-11-6-25-8-13-3-22-1-19 3 5 9 44 13 44 5zm-165-36c-27-12-43-12-25 0 8 5 22 9 30 9 10 0 8-3-5-9zm115-8c0-10-34-28-70-37l-25-6 25 20c14 11 34 22 45 24s21 5 23 6c1 0 2-3 2-7zm50-6c0-2-8-10-17-17-16-13-17-12-4 4s21 21 21 13zm-45-36c-3-5-13-10-21-10s-14-4-14-10c0-5-3-9-7-8-5 1-19-4-31-11-13-7-26-10-29-8-2 3 19 17 49 31 60 29 61 30 53 16zm69-15c-4-8-10-15-16-15-5 0-21-11-36-25s-28-21-30-15-9 7-14 4c-7-4-8-2-4 5 4 6 11 9 16 6s12 1 17 8c9 15 53 47 65 47 4 0 5-7 2-15zm70-39c-3-8-16-16-30-19-28-5-29-4-8 17 19 20 45 21 38 2zm66-79c0-2-10-12-22-23l-23-19 19 23c18 21 26 27 26 19zm-60-21c0-2-7-7-16-10-8-3-12-2-9 4 6 10 25 14 25 6z"/><path d="M4158 7083c7-3 16-2 19 1 4 3-2 6-13 5-11 0-14-3-6-6z"/><path d="M7165 5850c3-5 10-10 16-10 5 0 9 5 9 10 0 6-7 10-16 10-8 0-12-4-9-10z"/><path d="M7328 5833c7-3 16-2 19 1 4 3-2 6-13 5-11 0-14-3-6-6z"/><path d="M7250 5820c0-6 7-10 15-10s15 2 15 4-7 6-15 10c-8 3-15 1-15-4z"/><path d="M7280 5675c0-16 16-20 24-6 3 5-1 11-9 15-9 3-15 0-15-9z"/><path d="M7519 5683c0-5-2-17-4-27-5-28 9-53 20-36 15 24 14 70-1 70-8 0-14-3-15-7z"/><path d="M7270 5626c0-2 9-6 20-9s20-1 20 4-9 9-20 9-20-2-20-4z"/><path d="M7343 5610c-2-18 0-18 13-6 17 18 18 26 1 26-7 0-13-9-14-20z"/><path d="M7240 5554c0-8 9-14 20-14s20-4 20-10c0-5 16-10 35-10s35-4 35-9c0-14 41-21 82-14 51 8 38 23-21 23-26 0-52 5-58 11-5 5-24 11-42 11-17 1-31 4-31 8s-9 10-20 13c-13 3-20 0-20-9z"/><path d="M7385 5550c-3-5 1-10 9-10 9 0 16 5 16 10 0 6-4 10-9 10-6 0-13-4-16-10z"/><path d="M7253 5433c9-2 25-2 35 0 9 3 1 5-18 5s-27-2-17-5z"/><path d="M4780 5376c0-7-9-16-20-19s-20-13-20-23c0-16 1-16 18-1 10 10 23 17 28 17s10 9 11 20-2 20-8 20c-5 0-9-6-9-14z"/><path d="M6891 5314c5-6 19-10 29-7 27 7 25 10-10 15-22 3-27 2-19-8z"/><path d="M6595 5204c-16-24-16-25 2-16 10 6 22 10 26 10 15 0 15 7 2 19-11 10-17 7-30-13z"/><path d="M6496 5184c-22-22-20-31 2-11 10 10 22 14 25 10 4-3 7-1 7 5 0 17-16 15-34-4z"/><path d="M5412 5173c2-10 11-19 22-21 23-5 66-42 66-58 0-6 7-14 15-18 8-3 15-1 15 4 0 15 41 12 72-4 15-8 30-11 33-6 7 11 2 13-62 34-29 10-53 22-53 27s-10 9-23 9-34 11-47 25c-27 29-43 32-38 8z"/><path d="M5310 5155c0-8 7-15 16-15 14 0 14 3 4 15-7 8-14 15-16 15s-4-7-4-15z"/><path d="M6286 5151c-4-5 3-7 14-4 23 6 26 13 6 13-8 0-17-4-20-9z"/><path d="M6403 5135c-12-8-50-22-85-31s-67-19-71-24c-15-14 43-17 69-4 14 8 35 14 45 14s21 5 24 10c3 6 14 10 23 10 10 0 25 9 35 20 16 19 16 20-1 20-10 0-27-7-39-15z"/><path d="M5355 5110c3-5 8-10 11-10 2 0 4 5 4 10 0 6-5 10-11 10-5 0-7-4-4-10z"/><path d="M5378 5072c-2-21-9-28-30-30-16-2-28-7-28-12 0-13 26-19 41-9 42 26 139-18 139-64 0-15-5-18-22-13-35 10-85 17-68 10 8-4 25-18 37-31 14-14 33-23 52-23 31 0 49 14 31 25s-11 24 16 31l27 7-27 14c-14 7-26 18-26 23 0 6-8 10-17 10-10 0-31 15-48 34-16 18-40 38-52 45-20 10-22 8-25-17z"/><path d="M6920 5075c-10-12-10-15 3-15 8 0 17 7 21 15 3 8 2 15-3 15s-14-7-21-15z"/><path d="M6134 5070c-3-2-28-7-57-11-103-14-142-22-152-29-5-4-27-10-47-14-21-4-40-12-44-18-8-13 33-7 134 21 71 19 87 22 2e2 37 29 3 54 10 56 13 5 7-83 9-90 1z"/><path d="M6376 5065c-16-12-17-15-4-15 9 0 18 7 22 15 7 18 6 18-18 0z"/><path d="M5680 5052c0-5 9-12 21-15 13-3 19-1 16 6-5 15-37 22-37 9z"/><path d="M6298 5036c-15-8-35-16-45-19-14-4-13-5 5-6 22-1 82 24 82 34 0 9-14 5-42-9z"/><path d="M6710 5030c-12-8-10-9 7-7 12 2 26 6 29 10 11 11-19 8-36-3z"/><path d="M5715 5001c4-3 27-13 53-22l47-16-27-13c-16-7-28-17-28-22 0-8 14-6 1e2 18l45 12-37 1c-20 1-41 7-45 14-4 8-32 18-61 24s-50 7-47 4z"/><path d="M6161 4999c-13-5-21-12-18-15 8-8 65 5 72 17 8 12-23 11-54-2z"/><path d="M6930 4999c0-5 5-7 10-4 6 3 10 8 10 11 0 2-4 4-10 4-5 0-10-5-10-11z"/><path d="M6340 4975c-11-13-10-14 4-9 9 3 16 10 16 15 0 13-6 11-20-6z"/><path d="M5958 4963c6-2 18-2 25 0 6 3 1 5-13 5s-19-2-12-5z"/><path d="M6585 4952c-38-20-18-27 26-9 23 9 29 15 18 19-8 3-28-1-44-10z"/><path d="M6186 4925c-20-15-20-15 0-15 10 1 30 7 44 15l25 14h-25c-14 0-34-6-44-14z"/><path d="M5665 4920c-17-7-16-9 10-9 17 0 39 4 50 9 17 7 16 9-10 9-16 0-39-4-50-9z"/><path d="M5958 4923c7-3 16-2 19 1 4 3-2 6-13 5-11 0-14-3-6-6z"/><path d="M6494 4904c-18-15-18-15 6-10 14 3 31 6 38 6 6 0 12 5 12 10 0 15-34 12-56-6z"/><path d="M5550 49e2c0-5 12-10 28-9 24 0 25 1 7 9-27 12-35 12-35 0z"/><path d="M6690 4890c0-5-8-11-17-13-12-3-8-5 9-6 30-1 46 14 23 23-8 3-15 1-15-4z"/><path d="M5638 4863c6-2 18-2 25 0 6 3 1 5-13 5s-19-2-12-5z"/><path d="M6e3 4860c-12-8-10-10 8-10 13 0 20 4 17 10-7 12-6 12-25 0z"/><path d="M6376 4863c-4-5-26-16-49-25s-35-17-26-17c19-1 76 26 84 40 7 11 1 12-9 2z"/><path d="M6410 4860c-13-8-12-10 3-10 9 0 17 5 17 10 0 12-1 12-20 0z"/><path d="M6590 4840c0-5 5-10 10-10 6 0 10 5 10 10 0 6-4 10-10 10-5 0-10-4-10-10z"/><path d="M6055 4820c-16-18-16-20-2-20 10 0 17 5 17 11 0 5 4 7 10 4s7 1 4 9c-8 20-7 20-29-4z"/><path d="M5726 4822c-3-5-18-7-33-5-15 3-44-3-63-12l-35-16 65 6c37 3 71 11 79 20 10 9 11 15 4 15s-14-4-17-8z"/><path d="M6360 4815c-7-8-8-15-2-15 5 0 15 7 22 15s8 15 2 15c-5 0-15-7-22-15z"/><path d="M6680 4820c-8-5-12-12-9-15 8-8 39 5 39 16s-11 11-30-1z"/><path d="M5790 4810c-12-8-9-10 12-10 15 0 30 5 33 10 8 13-25 13-45 0z"/><path d="M6220 4801c-8-6-17-8-21-5-4 2-10 0-13-5-11-17 30-22 57-8 15 8 24 17 20 20-9 10-25 8-43-2z"/><path d="M6115 4790c-3-5-2-10 4-10 5 0 13 5 16 10 3 6 2 10-4 10-5 0-13-4-16-10z"/><path d="M6785 4790c-3-5-1-10 4-10 6 0 11 5 11 10 0 6-2 10-4 10-3 0-8-4-11-10z"/><path d="M6580 4780c-11-8-7-9 15-4 37 8 45 14 19 14-10 0-26-5-34-10z"/><path d="M6860 4779c0-5 5-7 10-4 6 3 10 8 10 11 0 2-4 4-10 4-5 0-10-5-10-11z"/><path d="M6525 4771c-6-5-27-14-47-21-21-6-38-16-38-21s-9-9-20-9-20-4-20-10c0-13 59-1 87 17 12 8 28 11 34 7 7-4 9-3 6 3-4 6 3 13 14 16 12 3 18 10 14 16-8 13-18 14-30 2z"/><path d="M5940 4745c-13-14-31-25-39-25-9 0-27-7-41-14-14-8-40-22-57-31-18-10-33-21-33-26 0-16 26-9 60 16 19 14 37 25 42 25 14 0 98 55 103 67 7 21-10 15-35-12z"/><path d="M6145 4760c-3-5-1-10 4-10 6 0 11 5 11 10 0 6-2 10-4 10-3 0-8-4-11-10z"/><path d="M6837 4736c-25-19-21-25 13-23 32 2 37 9 17 25-8 7-17 7-30-2z"/><path d="M6285 4720c3-5 8-10 11-10 2 0 4 5 4 10 0 6-5 10-11 10-5 0-7-4-4-10z"/><path d="M6197 4710c-20-4-41-10-45-15-11-12 70 3 82 15 5 5 8 9 6 9-3-1-22-5-43-9z"/><path d="M5207 4703c-15-14-7-43 12-43 14 0 17 6 13 25-4 25-13 31-25 18z"/><path d="M6059 4693c-13-17-13-17 6-3 11 8 22 16 24 17 2 2 0 3-6 3s-17-8-24-17z"/><path d="M6110 4680c-13-10-28-16-33-13-10 6-117-48-117-59 0-4-7-8-15-8s-15-4-15-9 14-4 30 2c17 6 30 15 30 18 0 4 15 10 33 14 17 4 43 14 57 23 14 10 35 19 47 22 14 3 20 9 15 17s-14 7-32-7z"/><path d="M6305 4685c-22-8-53-14-70-15-16 0-43-7-60-16l-30-14 40 5c73 8 189 35 199 45 14 14-29 11-79-5z"/><path d="M5440 4681c0-12 29-23 41-15 5 3 7 10 4 15-8 12-45 12-45 0z"/><path d="M5572 4659c-37-33-42-45-10-27 35 20 60 45 51 51-4 3-23-8-41-24z"/><path d="M6690 4669c0-5 5-7 10-4 6 3 10 8 10 11 0 2-4 4-10 4-5 0-10-5-10-11z"/><path d="M6442 4650c-7-11-9-20-4-20 10 0 32 22 32 32 0 15-15 8-28-12z"/><path d="M5623 4629c-26-10-30-24-8-33 9-3 15 0 15 9s10 15 25 15c14 0 25 4 25 8 0 11-31 12-57 1z"/><path d="M5732 4610c-18-30-14-36 8-12 21 22 25 32 12 32-4 0-13-9-20-20z"/><path d="M6540 4620c0-5 7-10 16-10 8 0 12 5 9 10-3 6-10 10-16 10-5 0-9-4-9-10z"/><path d="M6305 4602c-6-4-11-14-13-22-3-12 0-12 14 2 18 18 17 33-1 20z"/><path d="M6417 4593c3-13 9-23 14-23s2-11-7-26c-13-19-14-28-5-37 8-8 11-4 11 16 0 16 8 32 20 39 24 15 27 33 4 24-10-4-22 1-30 11-12 17-13 16-7-4z"/><path d="M6490 46e2c0-5 6-10 14-10s18 5 21 10c3 6-3 10-14 10-12 0-21-4-21-10z"/><path d="M6761 4591c-8-5-9-11-3-15 14-8 43 4 36 15s-15 11-33 0z"/><path d="M5564 4575c-10-26 1-35 13-10 6 14 7 25 2 25s-12-7-15-15z"/><path d="M6202 4574c-10-11-10-14 0-14 7 0 19 4 26 9 11 7 11 9 0 13-7 3-19-1-26-8z"/><path d="M5892 4568c-19-19-14-29 8-16 20 13 27 28 12 28-4 0-13-5-20-12z"/><path d="M6365 4560c-16-6-13-8 13-7 17 0 32 1 32 2 0 8-28 11-45 5z"/><path d="M6571 4558c-41-11-92-48-68-48 9 0 19 5 22 10 4 6 11 8 16 5 5-4 9-1 9 4 0 6 3 10 8 10 16-3 72 14 72 22 0 11-14 10-59-3z"/><path d="M5835 4530c-3-6 1-7 9-4 18 7 21 14 7 14-6 0-13-4-16-10z"/><path d="M6225 4520c-4-7 3-8 22-4 38 9 42 14 10 14-14 0-29-5-32-10z"/><path d="M6180 4510c-8-5-10-10-5-10 6 0 17 5 25 10s11 10 5 10c-5 0-17-5-25-10z"/><path d="M5866 4479c-22-22-10-25 17-5 10 8 15 16 10 19-4 2-17-4-27-14z"/><path d="M6085 4475c-22-13-47-24-55-25-26 0-83-36-86-53-2-13 4-12 34 7 44 26 149 76 162 76 5 0 12 5 15 10 11 18-29 9-70-15z"/><path d="M6590 4480c-14-11-20-20-14-20 7 0 22 9 35 20 31 25 12 26-21 0z"/><path d="M5770 4460c0-5 7-7 15-4 8 4 15 8 15 10s-7 4-15 4-15-4-15-10z"/><path d="M6404 4448c-5-13-8-26-9-30 0-3-13-18-30-32-24-21-38-25-81-23-29 2-51-1-48-5s15-8 27-9c15 0 17-2 7-6-17-7-40-29-40-39 0-3 7 0 17 7 9 8 18 13 20 11 2-1 17 5 34 14 18 9 42 14 56 11 13-2 26 0 29 4 3 5-1 9-8 9s-2 9 11 19c16 12 22 24 18 35-4 9-3 16 2 16s11 9 14 20c7 28-10 25-19-2z"/><path d="M5713 4447c-34-15-28-27 8-17 38 11 44 16 27 22-7 3-23 1-35-5z"/><path d="M6226 4435c-11-8-17-17-14-20 2-3 13 4 23 15 21 23 18 25-9 5z"/><path d="M5918 4433c6-2 18-2 25 0 6 3 1 5-13 5s-19-2-12-5z"/><path d="M6460 4428c-12-4-19-12-15-17 6-10 30-5 50 9 6 5 19 10 30 13 12 3 6 5-12 4s-41-5-53-9z"/><path d="M6576 4421c-3-5-22-12-41-15-20-4-33-11-31-15 9-13 53-1 72 20 9 10 14 19 11 19s-8-4-11-9z"/><path d="M5883 4374l-28-26 33 22c29 20 39 30 28 30-3 0-18-12-33-26z"/><path d="M6020 4390c-9-6-10-10-3-10 6 0 15 5 18 10 8 12 4 12-15 0z"/><path d="M6258 4393c7-3 16-2 19 1 4 3-2 6-13 5-11 0-14-3-6-6z"/><path d="M5272 4383c-6-2-10-9-6-14 3-5-6-9-20-9-28 0-33-11-13-28 14-12 60-5 52 8-3 4 4 10 15 13s20 12 20 21c0 16-22 20-48 9z"/><path d="M6485 4370c-4-6-14-8-24-5-9 3-26-1-37-9-17-13-15-14 24-9 49 7 52-1 15-33-35-30-26-31 21-3 34 20 51 38 24 24-7-4-5 0 4 8 13 10 15 16 6 25-15 15-25 15-33 2z"/><path d="M5944 4354c-18-14-18-15 4-4 12 6 22 13 22 15 0 8-5 6-26-11z"/><path d="M6175 4360c-3-5 1-10 9-10s18 5 21 10c3 6-1 10-9 10s-18-4-21-10z"/><path d="M5823 4348c-13-6-23-15-23-20s11-1 25 8c37 24 35 30-2 12z"/><path d="M6022 4349c5-16 58-25 58-10 0 6-6 11-14 11s-22 3-32 7c-12 4-15 2-12-8z"/><path d="M6540 4349c0-5 5-7 10-4 6 3 10 8 10 11 0 2-4 4-10 4-5 0-10-5-10-11z"/><path d="M5887 4323c-16-8-37-23-48-34-12-12-27-18-35-15-10 4-12 2-8-6 5-8 2-9-9-5-10 4-16 2-14-5 1-7-7-14-18-16s-22-7-25-11c-15-19-61-34-117-39-35-2-66-9-70-15s5-8 25-4c19 4 32 2 32-3 0-6-6-10-13-10s-32-9-55-20c-22-11-46-20-51-20-6 0-15-10-22-21-9-17-8-20 3-16 7 3 31 11 53 18s49 21 61 31c11 10 28 18 37 18s32 9 51 21c19 11 49 21 66 21 17 1 33 6 37 11 3 6 1 7-5 3-7-4-12-2-12 3 0 6 18 11 39 11 22 0 42 4 45 8 3 5-9 7-27 5l-32-4 33 17c17 9 32 21 32 26s9 6 20 3c14-4 20-2 20 9 0 8 10 22 22 30 30 21 19 28-15 9z"/><path d="M6559 4323c-13-16-12-17 4-4 9 7 17 15 17 17 0 8-8 3-21-13z"/><path d="M6150 4321c0-5-8-7-18-4-10 2-24-3-32-12-18-21-6-30 14-10 9 9 19 14 24 12 4-3 16 1 27 9 16 12 17 14 2 14-9 0-17-4-17-9z"/><path d="M6386 4315c-11-8-15-15-9-15s16 7 23 15c16 19 11 19-14 0z"/><path d="M5970 4303c0-12 3-14 8-7 4 7 16 14 27 17 15 4 14 5-7 6s-28-4-28-16z"/><path d="M6330 4291c-7-15-7-21 0-21 12 0 25 28 17 36-3 3-10-4-17-15z"/><path d="M5545 4290c-3-5-2-10 4-10 5 0 13 5 16 10 3 6 2 10-4 10-5 0-13-4-16-10z"/><path d="M5986 4282c-3-5 1-9 9-9s12 4 9 9c-3 4-7 8-9 8s-6-4-9-8z"/><path d="M6025 4280c-3-5-1-10 4-10 6 0 11 5 11 10 0 6-2 10-4 10-3 0-8-4-11-10z"/><path d="M5735 4270c-19-8-19-9 3-9 12-1 22 4 22 9 0 6-1 10-2 9-2 0-12-4-23-9z"/><path d="M5888 4262c-11-13-9-15 22-8 46 9 56 21 19 22-16 1-35-6-41-14z"/><path d="M5943 4241c-11-11-31-21-43-23-13-1-25-10-28-18-4-12-2-13 9-2 16 14 33 16 24 2-3-5-1-10 4-10 18 0 13-28-6-39-11-7-13-11-5-11 25 0 50 19 56 45 4 14 11 25 16 25s15 10 21 23c6 12 8 19 4 15-5-4-13-3-20 2-8 7-18 4-32-9z"/><path d="M6011 4254c-2-19 10-23 40-12 17 6 28 12 26 14-2 3-16 0-30-5-18-7-27-7-31 2-2 7-5 8-5 1z"/><path d="M6203 4247c-4-8-16-16-25-20-10-3-18-11-18-17s5-8 10-5c6 3 10-1 10-9 0-22 19-20 27 2 4 9 12 22 19 27 10 8 10 13-1 22-11 10-16 10-22 0z"/><path d="M5611 4226c-7-8-8-17-3-20 6-3 15 1 21 8 7 8 8 17 3 20-6 3-15-1-21-8z"/><path d="M6526 4224c-3-9-3-21 1-26 3-6 1-8-5-4-6 3-13 2-17-4-9-15 18-12 42 5 13 9 20 22 17 30-8 20-30 19-38-1z"/><path d="M6073 4205c0-9 10-15 24-15 13 0 23 5 23 11 0 5-5 7-10 4-6-4-17-2-24 4-9 8-13 7-13-4z"/><path d="M63e2 42e2c-20-12-10-19 14-10 11 3 15 9 10 13-6 3-16 2-24-3z"/><path d="M5786 4175c-26-14-56-25-66-25s-21-4-24-9c-3-4-23-11-45-15-22-3-41-13-45-22-5-13-2-15 11-9 10 4 25 8 33 9s26 9 40 18 43 20 65 24 48 13 59 20c10 7 25 10 34 7 9-4 13-1 10 7-7 23-22 22-72-5z"/><path d="M6265 4190c-3-5-1-10 4-10 6 0 11 5 11 10 0 6-2 10-4 10-3 0-8-4-11-10z"/><path d="M6140 4179c0-5 5-7 10-4 6 3 10 8 10 11 0 2-4 4-10 4-5 0-10-5-10-11z"/><path d="M6084 4158c-3-4 6-8 20-8s26 4 26 8-9 8-21 8c-11 0-23-4-25-8z"/><path d="M6465 4160c-4-6-10-8-14-5-5 2-17-2-27-10s-14-15-7-15c6 0 15 5 18 10 4 6 10 8 15 5 4-3 13 2 20 10s10 15 7 15-9-5-12-10z"/><path d="M6176 4144c-5-14-4-15 9-4 17 14 19 20 6 20-5 0-12-7-15-16z"/><path d="M6650 4150c0-5 5-10 10-10 6 0 10 5 10 10 0 6-4 10-10 10-5 0-10-4-10-10z"/><path d="M6070 4125c-7-9-11-18-8-20 3-3 11 1 18 10s11 18 8 20c-3 3-11-1-18-10z"/><path d="M6610 4130c0-5 4-10 9-10 6 0 13 5 16 10 3 6-1 10-9 10-9 0-16-4-16-10z"/><path d="M5929 4108c-8-14-14-18-17-10-2 6-8 12-14 12s-8-7-4-15c3-10-6-21-27-32-18-9-26-18-19-20 21-8 13-33-13-45-14-6-25-15-25-20s11-1 25 8c18 12 25 13 25 4s6-8 18 3c10 10 26 17 35 17 24 0 21 19-5 31-23 9-23 10-1 5 12-2 32 4 45 12 13 9 24 16 26 14 1-1 7-2 14-2 9 0 9 3 0 12s-18 9-37 0c-25-12-26-11-19 10 4 13 12 26 18 30 8 6 7 8-1 8-7 0-18-10-24-22z"/><path d="M5810 4111c0-5-9-13-21-16-11-4-19-9-16-11 5-5 77 24 77 31 0 3-9 5-20 5s-20-4-20-9z"/><path d="M6420 4110c0-5 5-10 10-10 6 0 10 5 10 10 0 6-4 10-10 10-5 0-10-4-10-10z"/><path d="M6533 4105c-10-10-9-16 4-27 10-8 14-8 10-1-4 6-3 14 3 18 12 7 14 25 3 25-5-1-13-7-20-15z"/><path d="M6270 4079c0-5 5-7 10-4 6 3 10 8 10 11 0 2-4 4-10 4-5 0-10-5-10-11z"/><path d="M5544 4064c-19-15-19-15 1-6 11 5 27 12 35 15 13 5 13 6-1 6-8 1-24-6-35-15z"/><path d="M6049 4063c-13-15-12-15 9-4 23 12 28 21 13 21-5 0-15-7-22-17z"/><path d="M6495 4070c-3-5-2-10 4-10 5 0 13 5 16 10 3 6 2 10-4 10-5 0-13-4-16-10z"/><path d="M6434 4045c-10-8-14-15-8-15s17 7 24 15c16 19 9 19-16 0z"/><path d="M5785 4040c-7-12 2-12 30 0 19 8 19 9-2 9-12 1-25-3-28-9z"/><path d="M6178 4022c-16-10-28-23-28-30s-4-10-10-7c-5 3-10 1-10-4 0-16 20-13 26 3 3 8 17 22 31 31 21 14 27 15 35 4 8-12 9-11 6 0-6 21-19 21-50 3z"/><path d="M65e2 4030c-8-5-11-12-7-16s15 0 24 9c18 18 8 23-17 7z"/><path d="M6595 4029c-10-14-1-21 19-13 9 3 13 10 10 15-7 12-21 11-29-2z"/><path d="M6388 4006c-22-16-23-26-3-26 8 0 15 5 15 10 0 6 7 10 15 10s15 5 15 10c0 14-22 12-42-4z"/><path d="M6547 4009c7-7 15-10 18-7s-2 9-12 12c-14 6-15 5-6-5z"/><path d="M6271 3991l-25-19 27 5c15 3 27 12 27 19 0 17 0 17-29-5z"/><path d="M6604 3987c-11-13-25-22-32-19-6 2-12-1-12-7 0-22 47-11 60 14 18 34 7 42-16 12z"/><path d="M6505 3989c-11-17 1-21 15-4 8 9 8 15 2 15s-14-5-17-11z"/><path d="M6340 3980c-9-6-10-10-3-10 6 0 15 5 18 10 8 12 4 12-15 0z"/><path d="M6107 3923l-17-38 20 24c11 13 20 29 20 37 0 22-5 17-23-23z"/><path d="M6259 3943c-13-16-12-17 4-4s21 21 13 21c-2 0-10-8-17-17z"/><path d="M5705 3919c-16-16-33-29-37-29s-19-5-35-12c-15-6-32-12-38-12-17-2-65-38-65-48 0-6 11-7 28-3 15 4 36 7 47 7 14-1 16 1 6 7-10 7-8 12 10 24 12 9 25 14 28 11s-1-9-9-14c-21-13-3-12 21 1 11 5 17 14 14 18-3 5 16 19 43 31 26 13 41 25 34 27-6 3-10 9-6 14 11 19-12 7-41-22z"/><path d="M6356 3925c-11-16-12-23-3-20 16 7 40 45 28 45-5 0-16-11-25-25z"/><path d="M6219 3903c-13-16-12-17 4-4s21 21 13 21c-2 0-10-8-17-17z"/><path d="M6420 3894c-21-53-3-57 24-4 12 26 13 30 0 30-8 0-19-12-24-26z"/><path d="M6478 3906c-26-19-22-27 7-14 14 6 25 15 25 20 0 12-12 9-32-6z"/><path d="M6065 3870c-3-5-1-10 4-10 6 0 11 5 11 10 0 6-2 10-4 10-3 0-8-4-11-10z"/><path d="M6131 3861c-13-10-19-21-14-24s17 3 27 14c23 27 17 32-13 10z"/><path d="M6260 3865c-11-13-10-14 4-9 9 3 16 10 16 15 0 13-6 11-20-6z"/><path d="M5687 3856c-4-10-1-13 8-9 8 3 12 9 9 14-7 12-11 11-17-5z"/><path d="M5988 3863c6-2 18-2 25 0 6 3 1 5-13 5s-19-2-12-5z"/><path d="M5835 3840c-3-5-2-17 3-27 9-15 11-14 20 4 15 27-7 49-23 23z"/><path d="M5985 3830c-3-6 1-7 9-4 18 7 21 14 7 14-6 0-13-4-16-10z"/><path d="M6220 3830c0-5-13-16-30-25-16-9-30-13-30-10s-10 0-22-6c-22-12-22-12-3-20 30-11 30-11 59 17 21 21 29 24 40 15 12-10 14-9 11 6-2 10-4 21-4 26-1 11-21 9-21-3z"/><path d="M6293 3833c-13-2-23-8-23-12 0-5 11-6 25-3 14 2 25 8 25 13s-1 8-2 8c-2-1-13-4-25-6z"/><path d="M6450 3820c-6-11-20-20-31-20s-17-5-14-10c4-6 11-8 16-5 5 4 9-1 9-9 0-9 9-16 20-16 16 0 19 5 14 24-3 13-1 27 5 30 6 4 11 11 11 17 0 16-19 10-30-11z"/><path d="M6548 3823c-10-2-18-11-18-19 0-11 5-11 25-2 14 6 25 15 25 20 0 8-4 9-32 1z"/><path d="M6102 38e2c0-14 2-19 5-12 2 6 2 18 0 25-3 6-5 1-5-13z"/><path d="M6295 3791c-3-6-14-11-24-11s-26-10-37-22c-14-17-15-20-2-9 9 7 21 10 25 8 11-7 60 30 51 38-3 3-9 2-13-4z"/><path d="M6547 3767c-37-11-47-34-11-29 10 1 29 3 42 4 14 0 22 7 22 19 0 21 1 21-53 6z"/><path d="M6064 3756c-10-8-16-18-11-22 4-4 7-2 7 4 0 7 9 12 20 12s20 5 20 10c0 14-13 12-36-4z"/><path d="M5980 3753c-33-4-65-22-44-24 48-7 81-3 77 7-2 7 4 14 14 17 21 6 2 5-47 0z"/><path d="M6175 3740c-3-5-1-18 4-27 9-16 10-14 11 10 0 28-5 34-15 17z"/><path d="M5780 3710c-9-6-10-10-3-10 6 0 15 5 18 10 8 12 4 12-15 0z"/><path d="M5930 3709c0-5 5-7 10-4 6 3 10 8 10 11 0 2-4 4-10 4-5 0-10-5-10-11z"/><path d="M6020 3710c-13-8-12-10 3-10 9 0 17 5 17 10 0 12-1 12-20 0z"/><path d="M6216 3693c-6-14-5-15 5-6 7 7 10 15 7 18s-9-2-12-12z"/><path d="M6498 3693c-31-5-33-10-14-35 12-17 46-24 58-13 7 7-3 55-11 54-3-1-18-4-33-6zm22-23c0-5-5-10-11-10-5 0-7 5-4 10 3 6 8 10 11 10 2 0 4-4 4-10z"/><path d="M5710 3669c0-5 10-13 21-20 15-8 19-8 15 0-7 10 6 16 27 12 5-1 6 3 3 8-8 12-66 11-66 0z"/><path d="M6410 3660c0-5 5-10 10-10 6 0 10 5 10 10 0 6-4 10-10 10-5 0-10-4-10-10z"/><path d="M6370 3650c0-5 4-10 9-10 6 0 13 5 16 10 3 6-1 10-9 10-9 0-16-4-16-10z"/><path d="M5908 3639c-24-14-23-28 2-22 11 3 20 12 20 19 0 16 0 16-22 3z"/><path d="M5808 3623c7-3 16-2 19 1 4 3-2 6-13 5-11 0-14-3-6-6z"/><path d="M6040 3610c-16-14-19-20-8-20 21 0 53 26 41 33-6 4-21-2-33-13z"/><path d="M6170 3603c0-14-3-23-6-20-4 3-16 1-27-5-19-10-19-12-4-23s15-14 3-24c-8-7-12-19-9-27 8-21 23-17 23 6 0 11 8 23 18 26 29 9 46 20 50 33 3 9-2 11-16 7-19-6-21-4-17 23 2 17-1 31-6 31s-9-12-9-27z"/><path d="M6284 3611c4-5 0-12-6-14-8-4-9-6-2-6 6-1 17 6 24 14 10 12 9 15-4 15-10 0-15-4-12-9z"/><path d="M5815 3590c-10-11-13-20-7-20 7 0 21 9 32 20 14 14 16 20 7 20-8 0-22-9-32-20z"/><path d="M5943 3588c-8-9-9-19-3-28 13-20 30-1 21 23-6 16-9 17-18 5z"/><path d="M5976 3592c-3-6 3-12 15-15s19-1 16 6c-5 15-24 20-31 9z"/><path d="M6358 3568c-2-6-13-12-24-13-10-1-32-9-49-19-27-15-27-16-5-11 75 20 86 18 103-17 9-18 17-27 17-20 0 14 40 17 40 2 0-5 4-10 10-10 5 0 9 11 8 25s-6 25-10 25-8 7-8 15c0 18-12 19-27 4-8-8-14-5-22 10-13 23-27 27-33 9z"/><path d="M5965 3540c-3-5 1-10 9-10 9 0 16 5 16 10 0 6-4 10-9 10-6 0-13-4-16-10z"/><path d="M5910 3520c-9-6-10-10-3-10 6 0 15 5 18 10 8 12 4 12-15 0z"/><path d="M5777 3513c-10-9-9-23 2-23 5 0 11 7 15 15 5 15-5 20-17 8z"/><path d="M6060 3510c-13-8-12-10 3-10 9 0 17 5 17 10 0 12-1 12-20 0z"/><path d="M5866 3472l-19-27 26 24c28 26 32 31 20 31-5 0-17-13-27-28z"/><path d="M5673 3483c9-2 23-2 30 0 6 3-1 5-18 5-16 0-22-2-12-5z"/><path d="M6340 3469c0-5 5-7 10-4 6 3 10 8 10 11 0 2-4 4-10 4-5 0-10-5-10-11z"/><path d="M5628 3463c12-2 30-2 40 0 9 3-1 5-23 4-22 0-30-2-17-4z"/><path d="M5862 3346c-16-18-16-18 3-8 20 10 27 12 45 12 6 0 10 4 10 8 0 15-41 7-58-12z"/><path d="M5727 3333c-10-17 32-28 47-13 8 10 6 12-11 7-12-2-24 0-26 6-2 8-5 8-10 0z"/><path d="M61e2 3326c0-9 5-16 10-16 6 0 10 4 10 9 0 6-4 13-10 16-5 3-10-1-10-9z"/><path d="M5768 3293c6-2 18-2 25 0 6 3 1 5-13 5s-19-2-12-5z"/><path d="M5650 3060c0-6 7-10 15-10s15 2 15 4-7 6-15 10c-8 3-15 1-15-4z"/><path d="M5735 3060c-3-6 1-7 9-4 18 7 21 14 7 14-6 0-13-4-16-10z"/><path d="M5705 3030c-3-5-1-10 4-10 6 0 11 5 11 10 0 6-2 10-4 10-3 0-8-4-11-10z"/><path d="M5640 2988c0-4 12-8 26-8s23 4 19 9c-6 11-45 10-45-1z"/><path d="M5631 2926c-10-12-8-13 8-9 12 3 21 9 21 14 0 14-16 11-29-5z"/><path d="M5573 2883c-31-6-29-18 2-19 14-1 23 2 20 6-3 5 1 11 7 13 15 6 2 6-29 0z"/><path d="M5625 2880c-3-5-1-10 4-10 6 0 11 5 11 10 0 6-2 10-4 10-3 0-8-4-11-10z"/><path d="M5588 2743c7-3 16-2 19 1 4 3-2 6-13 5-11 0-14-3-6-6z"/><path d="M5615 2640c3-5 8-10 11-10 2 0 4 5 4 10 0 6-5 10-11 10-5 0-7-4-4-10z"/><path d="M5693 2599c-12-12-6-49 8-49 5 0 6 6 3 14s-1 17 5 21c13 7 15 25 3 25-4 0-13-5-19-11z"/><path d="M5665 2389c-16-5-37-6-46-4-9 3-19-1-23-10-3-8-12-15-20-15s-18-4-21-10c-7-11 83-2 1e2 10 6 4 22 10 38 14 15 3 27 11 27 16 0 12-14 12-55-1z"/><path d="M5891 2119c-32-19-33-22-17-37 15-16 18-15 40 11 13 15 31 27 40 27s16 5 16 10c0 17-43 11-79-11z"/><path d="M5953 1999c-13-5-23-13-23-19s-15-17-32-25l-33-14 50-1c40 0 53 4 63 20 17 29 3 50-25 39z"/><path d="M6040 1904c0-8 5-12 10-9 6 3 10 10 10 16 0 5-4 9-10 9-5 0-10-7-10-16z"/><path d="M5925 1880c-14-15-15-20-4-20 15 1 49 23 49 34 0 13-28 5-45-14z"/><path d="M7290 5310c0-5 7-10 15-10s15 5 15 10c0 6-7 10-15 10s-15-4-15-10z"/><path d="M7430 3190c0-5 12-10 26-10s23 4 19 10c-3 6-15 10-26 10-10 0-19-4-19-10z"/><path d="M5220 2119c0-5 5-7 10-4 6 3 10 8 10 11 0 2-4 4-10 4-5 0-10-5-10-11z"/></g></svg>